<?xml version="1.0" encoding="UTF-8"?>
<svg version="1.1" xmlns="http://www.w3.org/2000/svg" width="568" height="440">
<path d="M0 0 C187.44 0 374.88 0 568 0 C568 145.2 568 290.4 568 440 C380.56 440 193.12 440 0 440 C0 294.8 0 149.6 0 0 Z " fill="#FEFEFE" transform="translate(0,0)"/>
<path d="M0 0 C0.66 0 1.32 0 2 0 C2.0515625 0.61746094 2.103125 1.23492187 2.15625 1.87109375 C3.19078449 9.59483421 6.36530738 13.76327727 12 19 C15.21196345 21.31594617 18.56957981 23.20472777 22.0625 25.0625 C22.98426025 25.57288818 23.90602051 26.08327637 24.85571289 26.60913086 C28.94008297 28.85920938 33.05444253 31.04257209 37.2109375 33.15625 C51.14840859 40.25633625 65.36450304 48.97951365 70.6484375 64.515625 C72.67268098 71.57987503 72.43513566 78.69412159 72.43945312 85.98632812 C72.55371381 92.46766711 72.81308125 96.89042136 77 102 C84.51969348 105.92803613 96.11802302 105.03771491 104.234375 103.3125 C109.005927 101.65762648 113.11754395 99.33951911 117.4375 96.75 C123.99080858 93.12673207 129.68103611 92.53918599 136.94677734 94.53466797 C141.3415382 95.91575976 145.63778254 97.54410485 149.93310547 99.20507812 C164.25796289 104.71437836 179.14026036 108.26441982 194 112 C194.33 113.32 194.66 114.64 195 116 C193.27054347 115.85764543 191.54144346 115.71095618 189.8125 115.5625 C188.84957031 115.48128906 187.88664062 115.40007812 186.89453125 115.31640625 C184 115 184 115 181.71582031 114.49511719 C158.06243505 110.18290348 128.21613978 114.20931524 107.703125 127.06640625 C104.7071035 129.28171845 101.84847746 131.59826766 99 134 C77.66276954 151.53927978 57.18248528 160.83208773 29 159 C25.63776095 158.40747427 22.47238443 157.66576045 19.21484375 156.65625 C9.99217765 154.77361585 0.97020414 156.47956798 -8.14504814 158.25291634 C-10.30435747 158.67144935 -12.46603234 159.07487321 -14.62892151 159.47447205 C-20.77096387 160.61106178 -26.90920214 161.76676263 -33.04272461 162.94848633 C-75.1747299 171.04217619 -75.1747299 171.04217619 -88 165 C-88 164.01 -88 163.02 -88 162 C-87.35737717 162.02258377 -86.71475433 162.04516754 -86.05265808 162.06843567 C-68.31677496 162.60161844 -51.73849512 160.85375036 -34.3125 157.6875 C-31.95672013 157.27733972 -29.60059951 156.86913169 -27.24414062 156.46289062 C-16.75173804 154.63995941 -6.28182779 152.73443295 4.13720703 150.52807617 C10.58031558 149.33956826 15.88132752 149.59699387 22.125 151.5 C35.88957389 155.23125284 52.9261093 154.87453489 66 149 C67.13179687 148.51402344 68.26359375 148.02804688 69.4296875 147.52734375 C79.3431091 142.93940356 87.50295819 136.81190326 95.6953125 129.640625 C112.50015083 115.09315301 132.63122894 110.77006824 154 107 C153.43490723 106.79318604 152.86981445 106.58637207 152.28759766 106.37329102 C149.73295385 105.43756929 147.17897086 104.50005683 144.625 103.5625 C143.73554688 103.23701172 142.84609375 102.91152344 141.9296875 102.57617188 C141.07890625 102.26357422 140.228125 101.95097656 139.3515625 101.62890625 C138.56604004 101.34088135 137.78051758 101.05285645 136.97119141 100.75610352 C135 100 135 100 133 99 C126.76181734 98.07090897 123.1267692 100.29636213 117.78125 103.40234375 C106.45303395 109.90970381 94.24256675 111.89621863 81.3203125 109.50390625 C76.38550997 107.80456763 71.48893772 104.98350926 69.09667969 100.18994141 C66.41806001 92.6028842 66.56531838 85.20669684 66.56054688 77.23828125 C66.38557603 67.33131145 63.90318148 60.19224402 57.05859375 52.94921875 C48.88438015 45.20930872 39.37437404 40.45427812 29.43188477 35.36791992 C18.47420727 29.75444729 7.48928879 24.0817349 0 14 C-2.56135171 19.95157585 -3.52029922 24.79034677 -3.4375 31.25 C-3.42992676 32.08192871 -3.42235352 32.91385742 -3.41455078 33.77099609 C-3.10596371 45.38693424 0.70298072 55.39850946 8.77734375 63.86328125 C12.37813314 67.18425469 16.20753082 69.81221218 20.375 72.375 C30.71210819 78.81779596 40.03924431 87.11773293 44 99 C44.50201239 105.12455118 44.09928344 108.12517646 40 113 C24.10565264 127.73205505 -5.5366714 126.45256336 -25.46069336 126.16113281 C-27.77572165 126.01423168 -29.78035822 125.65086014 -32 125 C-23.30633997 134.53498197 -12.06304027 139.06834243 0 143 C-0.33 144.32 -0.66 145.64 -1 147 C-15.29012396 146.19112506 -27.74714802 137.12273898 -38.22265625 127.9921875 C-40.19502243 125.78140343 -41.06724713 123.79342569 -42 121 C-41 120 -41 120 -37.53198242 119.93408203 C-35.9730833 119.95440716 -34.41424055 119.97935085 -32.85546875 120.0078125 C-31.13795132 120.02820623 -29.42042097 120.04753384 -27.70288086 120.06591797 C-26.80117157 120.07637146 -25.89946228 120.08682495 -24.97042847 120.09759521 C5.51897731 120.7632346 5.51897731 120.7632346 34 111 C36.45638321 108.54761742 37.83177405 107.05227049 38.3828125 103.60546875 C37.66292953 96.85383906 35.56511172 92.96117164 31 88 C30.51789063 87.42765625 30.03578125 86.8553125 29.5390625 86.265625 C25.37436397 81.65697384 20.3475892 78.53952545 15.13061523 75.26367188 C1.8531575 66.90899661 -4.8729827 56.90415807 -8.5859375 41.58203125 C-10.98598552 26.61569408 -7.91766874 12.78613819 0 0 Z " fill="#9770E9" transform="translate(235,53)"/>
<path d="M0 0 C3.23872284 2.71148889 5.79118119 5.45736239 7.6875 9.25 C7.77150529 10.84447464 7.79477467 12.44240545 7.78515625 14.0390625 C7.78193359 14.98007812 7.77871094 15.92109375 7.77539062 16.890625 C7.76282227 18.36789062 7.76282227 18.36789062 7.75 19.875 C7.74548828 20.86757813 7.74097656 21.86015625 7.73632812 22.8828125 C7.72452145 25.3386016 7.708054 27.79427104 7.6875 30.25 C6.3675 30.25 5.0475 30.25 3.6875 30.25 C3.6875 29.26 3.6875 28.27 3.6875 27.25 C3.11902344 27.53875 2.55054688 27.8275 1.96484375 28.125 C-4.49874167 31.2327005 -8.95795183 32.33027823 -16 30.0625 C-20.54783559 27.57406166 -22.4922074 24.4804389 -25.3125 20.25 C-26.15056998 15.24382976 -26.45540649 10.32501755 -23.95703125 5.7890625 C-17.14422641 -2.30208321 -9.63042293 -5.0877706 0 0 Z " fill="#FCFBFE" transform="translate(236.3125,262.75)"/>
<path d="M0 0 C5.00230198 2.45567552 8.49851535 5.9970307 11 11 C11.08400529 12.59447464 11.10727467 14.19240545 11.09765625 15.7890625 C11.09443359 16.73007812 11.09121094 17.67109375 11.08789062 18.640625 C11.07532227 20.11789062 11.07532227 20.11789062 11.0625 21.625 C11.05798828 22.61757813 11.05347656 23.61015625 11.04882812 24.6328125 C11.03702145 27.0886016 11.020554 29.54427104 11 32 C9.68 32 8.36 32 7 32 C7 30.68 7 29.36 7 28 C6.071875 28.639375 5.14375 29.27875 4.1875 29.9375 C-0.41105973 32.91303865 -3.56818954 33.44523037 -9 33 C-14.16966574 31.37160434 -18.2219427 28.73417317 -21.15234375 24.125 C-22.87126773 19.81580808 -22.73810202 15.524292 -22 11 C-17.22988743 1.28310402 -10.14378065 -1.03303 0 0 Z " fill="#FCFAFE" transform="translate(296,261)"/>
<path d="M0 0 C3.23872284 2.71148889 5.79118119 5.45736239 7.6875 9.25 C7.77150529 10.84447464 7.79477467 12.44240545 7.78515625 14.0390625 C7.78193359 14.98007812 7.77871094 15.92109375 7.77539062 16.890625 C7.76282227 18.36789062 7.76282227 18.36789062 7.75 19.875 C7.74548828 20.86757813 7.74097656 21.86015625 7.73632812 22.8828125 C7.72452145 25.3386016 7.708054 27.79427104 7.6875 30.25 C6.3675 30.25 5.0475 30.25 3.6875 30.25 C3.6875 29.26 3.6875 28.27 3.6875 27.25 C3.11902344 27.53875 2.55054688 27.8275 1.96484375 28.125 C-4.49874167 31.2327005 -8.95795183 32.33027823 -16 30.0625 C-20.54783559 27.57406166 -22.4922074 24.4804389 -25.3125 20.25 C-26.15056998 15.24382976 -26.45540649 10.32501755 -23.95703125 5.7890625 C-17.14422641 -2.30208321 -9.63042293 -5.0877706 0 0 Z M-19.3125 6.25 C-21.59607247 9.29476329 -21.72798086 12.45594291 -21.63671875 16.21875 C-21.10252404 19.56551204 -19.44373774 21.69251471 -17.3125 24.25 C-12.86156717 27.21728856 -8.53062008 27.00636001 -3.3125 26.25 C0.00626697 23.81172222 2.41007934 21.19839113 3.6875 17.25 C4.21844113 13.73251504 4.38058313 11.35412297 2.44921875 8.27734375 C-0.53862053 4.66672904 -2.52634586 2.56826854 -7.3984375 2.01171875 C-12.67242225 1.84071924 -15.56022885 2.15661329 -19.3125 6.25 Z " fill="#9671E8" transform="translate(236.3125,262.75)"/>
<path d="M0 0 C2.35079677 1.30708202 2.91607574 2.58424031 3.8828125 5.046875 C2.1328125 5.671875 2.1328125 5.671875 -0.1171875 6.046875 C-0.69210938 5.73234375 -1.26703125 5.4178125 -1.859375 5.09375 C-6.55547569 2.91631923 -12.06824797 3.53757973 -17.1171875 4.046875 C-22.15078383 6.4312101 -25.61715537 10.04681073 -28.1171875 15.046875 C-28.61047505 20.90163211 -28.97463038 26.23671781 -26.4296875 31.609375 C-21.22025681 37.15328512 -21.22025681 37.15328512 -14.21875 39.21484375 C-13.07148438 39.22128906 -11.92421875 39.22773438 -10.7421875 39.234375 C-9.60007813 39.24855469 -8.45796875 39.26273437 -7.28125 39.27734375 C-4.22954748 39.05505925 -2.72622629 38.50486726 -0.1171875 37.046875 C2.1328125 37.421875 2.1328125 37.421875 3.8828125 38.046875 C3.3828125 39.859375 3.3828125 39.859375 1.8828125 42.046875 C-5.07115633 45.46285969 -11.22239253 46.20848052 -18.6796875 43.984375 C-25.93319782 39.89603282 -30.76800926 35.62034659 -33.4921875 27.59375 C-35.07240809 21.1543511 -34.80839319 15.80100592 -31.51171875 9.96484375 C-23.39434784 -1.19938347 -12.83824232 -4.02592965 0 0 Z " fill="#9771E9" transform="translate(200.1171875,248.953125)"/>
<path d="M0 0 C5.00230198 2.45567552 8.49851535 5.9970307 11 11 C11.08400529 12.59447464 11.10727467 14.19240545 11.09765625 15.7890625 C11.09443359 16.73007812 11.09121094 17.67109375 11.08789062 18.640625 C11.07532227 20.11789062 11.07532227 20.11789062 11.0625 21.625 C11.05798828 22.61757813 11.05347656 23.61015625 11.04882812 24.6328125 C11.03702145 27.0886016 11.020554 29.54427104 11 32 C9.68 32 8.36 32 7 32 C7 30.68 7 29.36 7 28 C6.071875 28.639375 5.14375 29.27875 4.1875 29.9375 C-0.41105973 32.91303865 -3.56818954 33.44523037 -9 33 C-14.16966574 31.37160434 -18.2219427 28.73417317 -21.15234375 24.125 C-22.87126773 19.81580808 -22.73810202 15.524292 -22 11 C-17.22988743 1.28310402 -10.14378065 -1.03303 0 0 Z M-17 10 C-18.53597454 13.07194908 -18.2265038 15.60244293 -18 19 C-16.38008577 23.21177701 -14.85174406 25.65927287 -11 28 C-5.93564502 28.8377696 -1.42627961 28.81501692 3.0625 26.25 C6.45195918 22.31385386 7.56760781 19.46955186 7.45703125 14.1015625 C6.61306175 10.22074549 3.98336598 7.50428531 1 5 C-7.01725745 2.32758085 -11.52629753 3.87579956 -17 10 Z " fill="#9773E7" transform="translate(296,261)"/>
<path d="M0 0 C3.27051869 1.36486213 5.50241121 3.50241121 8 6 C7.625 8.125 7.625 8.125 7 10 C3.6885981 9.42906864 2.24945577 8.45395174 0 6 C-3.19286823 4.40356588 -6.53420693 4.48629549 -10 5 C-12.54645504 6.70960406 -12.54645504 6.70960406 -14 9 C-14 9.66 -14 10.32 -14 11 C-13.10692139 11.25692627 -13.10692139 11.25692627 -12.19580078 11.51904297 C-9.50353915 12.29764861 -6.81428889 13.08619084 -4.125 13.875 C-3.18785156 14.14441406 -2.25070312 14.41382813 -1.28515625 14.69140625 C0.05869141 15.08779297 0.05869141 15.08779297 1.4296875 15.4921875 C2.25710449 15.73308105 3.08452148 15.97397461 3.93701172 16.22216797 C6 17 6 17 8 19 C7.9192055 23.28210855 7.4472509 25.44093638 4.75 28.8125 C1.00096789 31.79468463 -1.57872052 32.81228384 -6.3125 33.4375 C-11.08723944 32.87100549 -14.42850742 31.22305428 -18 28 C-19 25.1875 -19 25.1875 -19 23 C-17.68 23 -16.36 23 -15 23 C-14.46375 23.66 -13.9275 24.32 -13.375 25 C-10.07656474 27.77762969 -7.52842989 27.39892376 -3.33984375 27.3359375 C-0.73297925 27.13313605 -0.73297925 27.13313605 2 25 C2 23.68 2 22.36 2 21 C0.81921875 20.75765625 -0.3615625 20.5153125 -1.578125 20.265625 C-3.13558583 19.92786241 -4.69286847 19.58927744 -6.25 19.25 C-7.41595703 19.01410156 -7.41595703 19.01410156 -8.60546875 18.7734375 C-13.13216014 17.76750608 -16.14305334 16.92174043 -19 13 C-19.5625 10.0625 -19.5625 10.0625 -19 7 C-13.30641559 0.22925098 -8.55308473 -1.02637017 0 0 Z " fill="#9772E8" transform="translate(378,261)"/>
<path d="M0 0 C13.53 0 27.06 0 41 0 C40.67 0.66 40.34 1.32 40 2 C32.85812117 3.58239422 25.14588287 3.12262817 17.875 3.0625 C16.2971875 3.05573242 16.2971875 3.05573242 14.6875 3.04882812 C12.12493779 3.03718011 9.56250123 3.02082553 7 3 C16.11925369 12.38886641 26.67932949 16.98437406 39 21 C38.67 22.32 38.34 23.64 38 25 C24.78832106 24.25216912 11.36470674 16.11160656 2 7 C2 6.01 2 5.02 2 4 C1.34 3.67 0.68 3.34 0 3 C0 2.01 0 1.02 0 0 Z " fill="#966FEB" transform="translate(196,175)"/>
<path d="M0 0 C4.2946078 2.4687008 5.54701565 5.99327875 7.1875 10.4375 C7.57711914 11.44006836 7.57711914 11.44006836 7.97460938 12.46289062 C8.98210439 15.08966704 9.92339338 17.66477813 10.55078125 20.41015625 C10.69902344 20.93480469 10.84726562 21.45945312 11 22 C11.66 22.33 12.32 22.66 13 23 C13.20625 21.96875 13.4125 20.9375 13.625 19.875 C15.23910925 13.29987851 18.24768683 7.16241188 21 1 C22.32 1 23.64 1 25 1 C23.07042942 7.11030683 20.82428717 13.03344577 18.41259766 18.9699707 C16.15839021 24.54012981 14.05011711 30.15881507 12.00463867 35.80883789 C10.89428482 38.82965915 9.79660287 41.30509569 8 44 C7.01 44 6.02 44 5 44 C5.39742834 40.62185907 5.75453437 37.59200535 7.0625 34.4375 C9.46958269 28.17908499 7.16104226 23.1989452 4.625 17.4375 C3.99217028 15.95703861 3.35935735 14.47657004 2.7265625 12.99609375 C1.73705787 10.70195052 0.74392272 8.40942178 -0.25 6.1171875 C-1.12498754 3.6471706 -0.89811604 2.4249133 0 0 Z " fill="#9974E8" transform="translate(329,261)"/>
<path d="M0 0 C1.32 0 2.64 0 4 0 C4 3.96 4 7.92 4 12 C6.64 12 9.28 12 12 12 C11.67 13.65 11.34 15.3 11 17 C8.69 17 6.38 17 4 17 C4.13854088 20.29201643 4.28707024 23.58350709 4.4375 26.875 C4.47681641 27.81214844 4.51613281 28.74929688 4.55664062 29.71484375 C4.61948242 31.05869141 4.61948242 31.05869141 4.68359375 32.4296875 C4.72025146 33.25710449 4.75690918 34.08452148 4.79467773 34.93701172 C4.88238327 37.06179429 4.88238327 37.06179429 6 39 C8.3140622 39.73075648 10.64828869 40.40138258 13 41 C13 42.32 13 43.64 13 45 C9.8125 45.3125 9.8125 45.3125 6 45 C3.125 42.5625 3.125 42.5625 1 40 C0.67 39.67 0.34 39.34 0 39 C-0.08700342 37.36527118 -0.10701063 35.72685945 -0.09765625 34.08984375 C-0.09443359 33.10048828 -0.09121094 32.11113281 -0.08789062 31.09179688 C-0.07951172 30.05087891 -0.07113281 29.00996094 -0.0625 27.9375 C-0.05798828 26.89271484 -0.05347656 25.84792969 -0.04882812 24.77148438 C-0.03699913 22.1809334 -0.02051689 19.59049441 0 17 C-1.65 17 -3.3 17 -5 17 C-5.5625 15.0625 -5.5625 15.0625 -6 13 C-5.67 12.67 -5.34 12.34 -5 12 C-3.35 12 -1.7 12 0 12 C0 8.04 0 4.08 0 0 Z " fill="#9873E9" transform="translate(256,249)"/>
<path d="M0 0 C1.32 0 2.64 0 4 0 C4 3.96 4 7.92 4 12 C6.64 12 9.28 12 12 12 C11.67 13.65 11.34 15.3 11 17 C8.69 17 6.38 17 4 17 C4.13854088 20.29201643 4.28707024 23.58350709 4.4375 26.875 C4.47681641 27.81214844 4.51613281 28.74929688 4.55664062 29.71484375 C4.61948242 31.05869141 4.61948242 31.05869141 4.68359375 32.4296875 C4.72025146 33.25710449 4.75690918 34.08452148 4.79467773 34.93701172 C4.88238327 37.06179429 4.88238327 37.06179429 6 39 C8.3140622 39.73075648 10.64828869 40.40138258 13 41 C13 42.32 13 43.64 13 45 C9.8125 45.3125 9.8125 45.3125 6 45 C3.36983839 42.8272578 1.52663106 41.05326212 0 38 C-0.08400529 36.40552536 -0.10727467 34.80759455 -0.09765625 33.2109375 C-0.09282227 31.79941406 -0.09282227 31.79941406 -0.08789062 30.359375 C-0.07951172 29.37453125 -0.07113281 28.3896875 -0.0625 27.375 C-0.05798828 26.38242187 -0.05347656 25.38984375 -0.04882812 24.3671875 C-0.03702145 21.9113984 -0.020554 19.45572896 0 17 C-1.65 17 -3.3 17 -5 17 C-5.5625 15.0625 -5.5625 15.0625 -6 13 C-5.67 12.67 -5.34 12.34 -5 12 C-3.35 12 -1.7 12 0 12 C0 8.04 0 4.08 0 0 Z " fill="#9773E8" transform="translate(397,249)"/>
<path d="M0 0 C1.98 0.495 1.98 0.495 4 1 C4 14.86 4 28.72 4 43 C5.32 43 6.64 43 8 43 C8 44.32 8 45.64 8 47 C1.84765625 47.09765625 1.84765625 47.09765625 0 47 C-1.55906782 45.44093218 -1.12722371 43.93845719 -1.12939453 41.77148438 C-1.13254669 40.87385376 -1.13569885 39.97622314 -1.13894653 39.0513916 C-1.1369223 38.07536987 -1.13489807 37.09934814 -1.1328125 36.09375 C-1.13376923 35.0987146 -1.13472595 34.1036792 -1.13571167 33.07849121 C-1.1363936 30.97013282 -1.13453844 28.86177235 -1.13037109 26.75341797 C-1.12502303 23.51394973 -1.13031567 20.27462015 -1.13671875 17.03515625 C-1.13605797 14.99218719 -1.13477681 12.94921822 -1.1328125 10.90625 C-1.13483673 9.93022827 -1.13686096 8.95420654 -1.13894653 7.9486084 C-1.13579437 7.05097778 -1.13264221 6.15334717 -1.12939453 5.22851562 C-1.12859894 4.43433228 -1.12780334 3.64014893 -1.12698364 2.82189941 C-1 1 -1 1 0 0 Z " fill="#A07BEC" transform="translate(315,247)"/>
<path d="M0 0 C0.66 0 1.32 0 2 0 C3.65497356 3.30994713 3.10084335 6.99123 3.0625 10.625 C3.05798828 11.42679687 3.05347656 12.22859375 3.04882812 13.0546875 C3.03703168 15.03649006 3.01909605 17.01825433 3 19 C1.68 18.34 0.36 17.68 -1 17 C-1.598125 17.845625 -2.19625 18.69125 -2.8125 19.5625 C-4.87103541 21.69284478 -5.76254238 21.99066178 -8.78125 22.109375 C-11.54705551 21.83849714 -14.26384494 21.48397839 -17 21 C-17 20.34 -17 19.68 -17 19 C-16.33613281 18.91363281 -15.67226563 18.82726562 -14.98828125 18.73828125 C-9.14110314 17.80785437 -5.7860503 16.8852262 -2 12 C-0.78306124 9.56612247 -0.68040104 7.58161154 -0.4375 4.875 C-0.35371094 3.96492188 -0.26992188 3.05484375 -0.18359375 2.1171875 C-0.09271484 1.06917969 -0.09271484 1.06917969 0 0 Z " fill="#9065ED" transform="translate(303,271)"/>
<path d="M0 0 C13.53 0 27.06 0 41 0 C40.67 0.66 40.34 1.32 40 2 C33.25557152 3.10564401 26.5063095 3.09912684 19.6875 3.125 C18.81569092 3.12967285 17.94388184 3.1343457 17.0456543 3.13916016 C12.90297916 3.12878251 9.0388465 3.04926734 5 2 C4.67 2.99 4.34 3.98 4 5 C2.68 4.34 1.36 3.68 0 3 C0 2.01 0 1.02 0 0 Z " fill="#8F62F0" transform="translate(196,175)"/>
<path d="M0 0 C9.71614177 -0.14973506 19.31629705 0.30386731 29 1 C29 1.99 29 2.98 29 4 C19.76 4 10.52 4 1 4 C0.67 2.68 0.34 1.36 0 0 Z " fill="#9168EA" transform="translate(147,215)"/>
<path d="M0 0 C-1.65 0.66 -3.3 1.32 -5 2 C-2.69 2 -0.38 2 2 2 C-2.92350927 6.92350927 -11.30777548 6.10943354 -17.85205078 6.13623047 C-21.90197017 6.11982826 -25.95077406 6.07662291 -30 6 C-30 5.67 -30 5.34 -30 5 C-23.73 4.67 -17.46 4.34 -11 4 C-15.95 3.67 -20.9 3.34 -26 3 C-26 2.34 -26 1.68 -26 1 C-25.40461426 0.97494385 -24.80922852 0.9498877 -24.19580078 0.92407227 C-21.50530864 0.80822506 -18.8151766 0.68544804 -16.125 0.5625 C-15.18785156 0.52318359 -14.25070312 0.48386719 -13.28515625 0.44335938 C-11.94130859 0.38051758 -11.94130859 0.38051758 -10.5703125 0.31640625 C-9.32918701 0.26141968 -9.32918701 0.26141968 -8.06298828 0.20532227 C-1.49466825 -0.44840047 -1.49466825 -0.44840047 0 0 Z " fill="#9B78E6" transform="translate(294,206)"/>
<path d="M0 0 C5.86809507 0.52393706 10.54873741 1.76108858 16 4 C16 4.99 16 5.98 16 7 C14.27054347 6.85764543 12.54144346 6.71095618 10.8125 6.5625 C9.36810547 6.44068359 9.36810547 6.44068359 7.89453125 6.31640625 C5 6 5 6 2.65039062 5.5 C-0.03177909 4.99400483 -2.57516216 4.7951688 -5.30078125 4.68359375 C-6.27724609 4.64169922 -7.25371094 4.59980469 -8.25976562 4.55664062 C-9.77086914 4.49766602 -9.77086914 4.49766602 -11.3125 4.4375 C-12.33923828 4.39431641 -13.36597656 4.35113281 -14.42382812 4.30664062 C-16.94909569 4.20093175 -19.47445562 4.09883532 -22 4 C-22 3.67 -22 3.34 -22 3 C-18.04168191 2.97107143 -14.08339083 2.95322573 -10.125 2.9375 C-8.43310547 2.92493164 -8.43310547 2.92493164 -6.70703125 2.91210938 C-5.63066406 2.90888672 -4.55429687 2.90566406 -3.4453125 2.90234375 C-2.45031738 2.89710693 -1.45532227 2.89187012 -0.43017578 2.88647461 C2 3 2 3 4 4 C3.04134491 1.66924071 3.04134491 1.66924071 0 0 Z " fill="#9D79E9" transform="translate(414,162)"/>
<path d="M0 0 C0.33 0 0.66 0 1 0 C1.02505615 0.56509277 1.0501123 1.13018555 1.07592773 1.71240234 C1.19179956 4.26683742 1.31456537 6.8208955 1.4375 9.375 C1.47681641 10.26445312 1.51613281 11.15390625 1.55664062 12.0703125 C1.59853516 12.92109375 1.64042969 13.771875 1.68359375 14.6484375 C1.72025146 15.43395996 1.75690918 16.21948242 1.79467773 17.02880859 C1.890891 19.07523496 1.890891 19.07523496 3 21 C3.66 20.67 4.32 20.34 5 20 C5.33 20.66 5.66 21.32 6 22 C8.3140622 22.73075648 10.64828869 23.40138258 13 24 C13 25.32 13 26.64 13 28 C9.8125 28.3125 9.8125 28.3125 6 28 C3.36983839 25.8272578 1.52663106 24.05326212 0 21 C-0.08400529 19.40552536 -0.10727467 17.80759455 -0.09765625 16.2109375 C-0.09443359 15.26992188 -0.09121094 14.32890625 -0.08789062 13.359375 C-0.07951172 12.37453125 -0.07113281 11.3896875 -0.0625 10.375 C-0.05798828 9.38242187 -0.05347656 8.38984375 -0.04882812 7.3671875 C-0.03702145 4.9113984 -0.020554 2.45572896 0 0 Z " fill="#A789E8" transform="translate(397,266)"/>
<path d="M0 0 C1.32 0 2.64 0 4 0 C4 5.28 4 10.56 4 16 C1.03 15.67 -1.94 15.34 -5 15 C-4 13 -4 13 -1 12 C-0.67 8.04 -0.34 4.08 0 0 Z " fill="#9974E8" transform="translate(256,249)"/>
<path d="M0 0 C0.66 0 1.32 0 2 0 C3.07624414 5.44452918 3.32192966 10.84582589 3.5625 16.375 C3.60568359 17.30183594 3.64886719 18.22867188 3.69335938 19.18359375 C3.79876186 21.45560294 3.90088606 23.72770925 4 26 C2.68 25.34 1.36 24.68 0 24 C0 16.08 0 8.16 0 0 Z " fill="#8F62EE" transform="translate(303,120)"/>
<path d="M0 0 C0.5775 0.20625 1.155 0.4125 1.75 0.625 C1.25 2.4375 1.25 2.4375 -0.25 4.625 C-7.16673467 8.02269422 -13.37178867 8.71362072 -20.8125 6.625 C-21.616875 6.295 -22.42125 5.965 -23.25 5.625 C-19.65006091 4.48724147 -16.31796344 4.55771286 -12.5625 4.625 C-10.4586665 4.66244309 -8.35364296 4.67194322 -6.25 4.625 C-5.92 4.295 -5.59 3.965 -5.25 3.625 C-9.21 3.625 -13.17 3.625 -17.25 3.625 C-17.25 3.295 -17.25 2.965 -17.25 2.625 C-16.50234375 2.57601563 -15.7546875 2.52703125 -14.984375 2.4765625 C-13.99953125 2.40179688 -13.0146875 2.32703125 -12 2.25 C-10.53820312 2.14558594 -10.53820312 2.14558594 -9.046875 2.0390625 C-5.67994835 1.54060688 -3.31365236 -0.55227539 0 0 Z " fill="#9775E5" transform="translate(202.25,286.375)"/>
<path d="M0 0 C0.66 0.99 1.32 1.98 2 3 C4.19149706 5.78917808 5.79743684 7.71953645 9.328125 8.54296875 C11.55850594 8.78494404 13.75767498 8.94626236 16 9 C16 9.33 16 9.66 16 10 C13.36 10 10.72 10 8 10 C8 10.66 8 11.32 8 12 C10.64 12.33 13.28 12.66 16 13 C16 13.33 16 13.66 16 14 C10.10685327 14.49109556 5.8834422 13.44260678 1 10 C-1 7.25 -1 7.25 -2 5 C-1.34 4.67 -0.68 4.34 0 4 C0 2.68 0 1.36 0 0 Z " fill="#9D7BE8" transform="translate(278,280)"/>
<path d="M0 0 C3.96 0 7.92 0 12 0 C12 0.66 12 1.32 12 2 C17.28 2 22.56 2 28 2 C27.67 2.66 27.34 3.32 27 4 C23.81267746 4.08797281 20.62567212 4.14071341 17.4375 4.1875 C16.09461914 4.22520508 16.09461914 4.22520508 14.72460938 4.26367188 C9.00215108 4.32655603 5.08575141 3.65798531 0 1 C0 0.67 0 0.34 0 0 Z " fill="#8F62EF" transform="translate(256,207)"/>
<path d="M0 0 C0.66 0.33 1.32 0.66 2 1 C2 7.27 2 13.54 2 20 C1.34 20 0.68 20 0 20 C-0.103125 19.21625 -0.20625 18.4325 -0.3125 17.625 C-0.77595022 14.66954819 -0.77595022 14.66954819 -4 13 C-3.6875 11.0625 -3.6875 11.0625 -3 9 C-2.01 8.67 -1.02 8.34 0 8 C0 5.36 0 2.72 0 0 Z " fill="#9265F0" transform="translate(241,274)"/>
<path d="M0 0 C6.6 0 13.2 0 20 0 C20 0.99 20 1.98 20 3 C5.21867882 3.18451025 5.21867882 3.18451025 -1 2 C-0.67 1.34 -0.34 0.68 0 0 Z " fill="#9063EE" transform="translate(319,159)"/>
<path d="M0 0 C5.445 1.485 5.445 1.485 11 3 C10.67 4.32 10.34 5.64 10 7 C5.28596212 6.52060632 1.33420699 6.03165952 -3 4 C-1.68 3.67 -0.36 3.34 1 3 C0.67 2.01 0.34 1.02 0 0 Z " fill="#9874E6" transform="translate(224,193)"/>
<path d="M0 0 C0.33 1.32 0.66 2.64 1 4 C1.66 4 2.32 4 3 4 C2.71640113 5.4391134 2.42278601 6.87625518 2.125 8.3125 C1.96257812 9.11300781 1.80015625 9.91351563 1.6328125 10.73828125 C1 13 1 13 -1 16 C-1.99 16 -2.98 16 -4 16 C-3.39891424 10.34979382 -1.92471317 5.33835539 0 0 Z " fill="#9C7BE6" transform="translate(338,289)"/>
<path d="M0 0 C0.66 0 1.32 0 2 0 C3.59412284 3.18824568 3.10174735 6.62896662 3.0625 10.125 C3.05798828 10.87910156 3.05347656 11.63320313 3.04882812 12.41015625 C3.03703499 14.27347127 3.01909942 16.13674555 3 18 C2.34 18.33 1.68 18.66 1 19 C-0.25433458 15.23699626 -0.10695422 11.72789091 -0.0625 7.8125 C-0.05798828 7.06291016 -0.05347656 6.31332031 -0.04882812 5.54101562 C-0.03706354 3.69397617 -0.01912865 1.84697787 0 0 Z " fill="#8F64E9" transform="translate(398,269)"/>
<path d="M0 0 C0.66 0.66 1.32 1.32 2 2 C4.31765729 2.71927295 6.65095874 3.3909893 9 4 C9 5.32 9 6.64 9 8 C2.6 8.49230769 2.6 8.49230769 -0.4375 6 C-0.953125 5.34 -1.46875 4.68 -2 4 C-1.34 4 -0.68 4 0 4 C0 2.68 0 1.36 0 0 Z " fill="#9471E7" transform="translate(260,286)"/>
<path d="M0 0 C0.66 0 1.32 0 2 0 C2.06058594 0.85464844 2.12117187 1.70929688 2.18359375 2.58984375 C2.26738281 3.69457031 2.35117188 4.79929687 2.4375 5.9375 C2.51871094 7.03964844 2.59992188 8.14179687 2.68359375 9.27734375 C2.70418084 11.91109903 2.70418084 11.91109903 4 13 C4.04092937 15.33297433 4.04241723 17.66705225 4 20 C3.34 20 2.68 20 2 20 C0.19320413 15.37630977 -0.21839082 11.57471347 -0.125 6.625 C-0.10695312 5.37976563 -0.08890625 4.13453125 -0.0703125 2.8515625 C-0.04710937 1.91054687 -0.02390625 0.96953125 0 0 Z " fill="#9061EF" transform="translate(227,80)"/>
<path d="M0 0 C0.66 0 1.32 0 2 0 C2.33 3.63 2.66 7.26 3 11 C1.68 11 0.36 11 -1 11 C-1 9.68 -1 8.36 -1 7 C-1.33 7.66 -1.66 8.32 -2 9 C-2.66 9 -3.32 9 -4 9 C-2.94124926 5.59687262 -1.99097846 2.98646769 0 0 Z " fill="#9669EA" transform="translate(235,53)"/>
<path d="M0 0 C3.33717549 1.3809002 5.22301036 2.8201238 7 6 C6.6875 8.25 6.6875 8.25 6 10 C0.24133663 6.69183168 0.24133663 6.69183168 -0.9375 3.3125 C-0.958125 2.549375 -0.97875 1.78625 -1 1 C-0.67 0.67 -0.34 0.34 0 0 Z " fill="#9A77E8" transform="translate(360,283)"/>
<path d="M0 0 C0.83265381 0.00523682 1.66530762 0.01047363 2.52319336 0.01586914 C3.42231445 0.0190918 4.32143555 0.02231445 5.24780273 0.02563477 C6.66609375 0.03820312 6.66609375 0.03820312 8.11303711 0.05102539 C9.06243164 0.05553711 10.01182617 0.06004883 10.98999023 0.06469727 C13.34356776 0.07652429 15.69702188 0.09300514 18.05053711 0.11352539 C14.62600487 3.29464725 12.15056901 3.49460385 7.55053711 3.42602539 C6.42647461 3.4221582 5.30241211 3.41829102 4.14428711 3.41430664 C1.21964777 3.1299667 -0.47653738 2.63485947 -2.94946289 1.11352539 C-1.94946289 0.11352539 -1.94946289 0.11352539 0 0 Z " fill="#8E63EF" transform="translate(181.949462890625,288.886474609375)"/>
<path d="M0 0 C3.34243648 1.89404734 3.97997149 2.94091591 5.25 6.6875 C5.4975 7.780625 5.745 8.87375 6 10 C4.68 10.33 3.36 10.66 2 11 C-1.07692308 4.6 -1.07692308 4.6 -0.6875 1.5625 C-0.460625 1.046875 -0.23375 0.53125 0 0 Z " fill="#9A7AE6" transform="translate(329,261)"/>
<path d="M0 0 C2.475 0.495 2.475 0.495 5 1 C5 3.31 5 5.62 5 8 C3.68 8.33 2.36 8.66 1 9 C0.67 6.03 0.34 3.06 0 0 Z " fill="#9771EB" transform="translate(338,284)"/>
<path d="M0 0 C3.37705625 0.53725895 6.696686 1.11064623 10 2 C10 2.66 10 3.32 10 4 C6.87819599 4.96661363 4.47916205 4.98988909 1.25 4.5625 C0.05117188 4.40974609 0.05117188 4.40974609 -1.171875 4.25390625 C-1.77515625 4.17011719 -2.3784375 4.08632812 -3 4 C-2.01 2.68 -1.02 1.36 0 0 Z " fill="#9164EB" transform="translate(362,147)"/>
<path d="M0 0 C2.05859375 -0.36328125 2.05859375 -0.36328125 4.4375 -0.3125 C5.21996094 -0.30863281 6.00242188 -0.30476562 6.80859375 -0.30078125 C9 0 9 0 12 2 C11 3 11 3 8.05859375 3.09765625 C6.26615234 3.08025391 6.26615234 3.08025391 4.4375 3.0625 C2.64119141 3.04896484 2.64119141 3.04896484 0.80859375 3.03515625 C-0.11824219 3.02355469 -1.04507813 3.01195312 -2 3 C-1.34 2.01 -0.68 1.02 0 0 Z " fill="#9366EF" transform="translate(179,215)"/>
<path d="M0 0 C0.66 0 1.32 0 2 0 C2.33 1.32 2.66 2.64 3 4 C-1.17737474 5.59138085 -4.53160785 6.21278058 -9 6 C-6.58170035 2.37255052 -5.05638557 2.20828506 -1 1 C-0.67 0.67 -0.34 0.34 0 0 Z " fill="#9066EA" transform="translate(262,168)"/>
<path d="M0 0 C2.64 0 5.28 0 8 0 C8 1.32 8 2.64 8 4 C1.25 4.125 1.25 4.125 -1 3 C-0.67 2.01 -0.34 1.02 0 0 Z " fill="#936FEA" transform="translate(402,290)"/>
<path d="M0 0 C0.33 0 0.66 0 1 0 C1 3 1 6 1 9 C-0.65 9.66 -2.3 10.32 -4 11 C-4 10.34 -4 9.68 -4 9 C-6.64 8.67 -9.28 8.34 -12 8 C-12 7.67 -12 7.34 -12 7 C-9.02148438 6.70703125 -9.02148438 6.70703125 -6.04296875 6.4140625 C-3.70011858 6.07334609 -3.70011858 6.07334609 -1 4 C-0.27617533 1.94074861 -0.27617533 1.94074861 0 0 Z " fill="#A07FE8" transform="translate(381,282)"/>
<path d="M0 0 C7.50769231 -0.36923077 7.50769231 -0.36923077 10 1.5 C10.495 2.2425 10.495 2.2425 11 3 C10.67 3.33 10.34 3.66 10 4 C8.47480724 3.91062197 6.95318071 3.75462854 5.4375 3.5625 C4.19806641 3.40974609 4.19806641 3.40974609 2.93359375 3.25390625 C2.29550781 3.17011719 1.65742188 3.08632813 1 3 C0.67 2.01 0.34 1.02 0 0 Z " fill="#8E66E8" transform="translate(288,261)"/>
<path d="M0 0 C0.66 0.33 1.32 0.66 2 1 C2.59355614 3.64860427 2.74209269 6.29197322 3 9 C0.03 8.67 -2.94 8.34 -6 8 C-5.67 7.34 -5.34 6.68 -5 6 C-2.4375 5.375 -2.4375 5.375 0 5 C0 3.35 0 1.7 0 0 Z " fill="#9161F2" transform="translate(257,256)"/>
<path d="M0 0 C1.75 2 1.75 2 3 4 C1.125 4.625 1.125 4.625 -1 5 C-1.66 4.34 -2.32 3.68 -3 3 C-5.56916657 2.69400937 -8.04758384 2.48912913 -10.625 2.375 C-11.33140625 2.33632812 -12.0378125 2.29765625 -12.765625 2.2578125 C-14.50998524 2.16352276 -16.25495691 2.08067109 -18 2 C-18 1.67 -18 1.34 -18 1 C-15.75013201 0.83156069 -13.50009983 0.66531346 -11.25 0.5 C-9.37054688 0.36078125 -9.37054688 0.36078125 -7.453125 0.21875 C-4.97265229 0.06161598 -2.48544483 0 0 0 Z " fill="#AB8BEE" transform="translate(340,157)"/>
<path d="M0 0 C0.33 0 0.66 0 1 0 C1.66 4.62 2.32 9.24 3 14 C1.68 13.34 0.36 12.68 -1 12 C-1.02698189 10.37509046 -1.04638757 8.75005367 -1.0625 7.125 C-1.07410156 6.22007812 -1.08570313 5.31515625 -1.09765625 4.3828125 C-1 2 -1 2 0 0 Z " fill="#9064ED" transform="translate(276,272)"/>
<path d="M0 0 C4.95 0.33 9.9 0.66 15 1 C15 1.33 15 1.66 15 2 C13.02 2 11.04 2 9 2 C9 2.66 9 3.32 9 4 C7.3125 4.8125 7.3125 4.8125 5 5 C3.35 3.35 1.7 1.7 0 0 Z " fill="#A07FEA" transform="translate(215,288)"/>
<path d="M0 0 C0.5775 0.20625 1.155 0.4125 1.75 0.625 C1.42 1.615 1.09 2.605 0.75 3.625 C0.42 2.965 0.09 2.305 -0.25 1.625 C-0.94480469 1.95242188 -1.63960937 2.27984375 -2.35546875 2.6171875 C-5.61368828 3.75162831 -8.12449502 3.82556055 -11.5625 3.75 C-12.63113281 3.73195313 -13.69976562 3.71390625 -14.80078125 3.6953125 C-15.60902344 3.67210937 -16.41726562 3.64890625 -17.25 3.625 C-17.25 3.295 -17.25 2.965 -17.25 2.625 C-16.50234375 2.57601563 -15.7546875 2.52703125 -14.984375 2.4765625 C-13.99953125 2.40179688 -13.0146875 2.32703125 -12 2.25 C-10.53820312 2.14558594 -10.53820312 2.14558594 -9.046875 2.0390625 C-5.67994835 1.54060688 -3.31365236 -0.55227539 0 0 Z " fill="#A98EE5" transform="translate(202.25,286.375)"/>
<path d="M0 0 C2.97 0 5.94 0 9 0 C9.33 0.66 9.66 1.32 10 2 C7.24075815 3.80411967 6.11027897 4.0127245 2.75 3.625 C1.8425 3.41875 0.935 3.2125 0 3 C0 2.01 0 1.02 0 0 Z " fill="#8E65E5" transform="translate(369,261)"/>
<path d="M0 0 C0 0.66 0 1.32 0 2 C-4.1196377 3.29243536 -7.66831683 4.26252625 -12 4 C-9.8923766 -0.2152468 -4.26296995 -1.87570678 0 0 Z " fill="#8F64F0" transform="translate(300,205)"/>
<path d="M0 0 C2 1 4 2 6 3 C6.66 2.34 7.32 1.68 8 1 C9.32 1.99 10.64 2.98 12 4 C11.01 4.33 10.02 4.66 9 5 C8.34 5.66 7.68 6.32 7 7 C5.82780457 6.21654285 4.66236332 5.42297164 3.5 4.625 C2.8503125 4.18414062 2.200625 3.74328125 1.53125 3.2890625 C1.0259375 2.86367187 0.520625 2.43828125 0 2 C0 1.34 0 0.68 0 0 Z " fill="#9C79E7" transform="translate(242,73)"/>
<path d="M0 0 C0.33 0.99 0.66 1.98 1 3 C0.67 3.66 0.34 4.32 0 5 C1.32 5 2.64 5 4 5 C3.67 6.32 3.34 7.64 3 9 C0.5625 8.25 0.5625 8.25 -2 7 C-2.8125 4.875 -2.8125 4.875 -3 3 C-2.34 3 -1.68 3 -1 3 C-0.67 2.01 -0.34 1.02 0 0 Z " fill="#9466F3" transform="translate(234,59)"/>
<path d="M0 0 C2.25 1.9375 2.25 1.9375 4 4 C3.01 4 2.02 4 1 4 C0.67 4.99 0.34 5.98 0 7 C-1.37562854 5.71034824 -2.70766393 4.37310707 -4 3 C-4 2.34 -4 1.68 -4 1 C-2.25 0.25 -2.25 0.25 0 0 Z " fill="#9A77E8" transform="translate(242,116)"/>
<path d="M0 0 C1.9451 2.91765 2.45276317 4.62537285 3 8 C2.34 8 1.68 8 1 8 C0.67 5.36 0.34 2.72 0 0 Z M-1 8 C-0.34 8 0.32 8 1 8 C3.125 12.625 3.125 12.625 2 16 C-1 11.375 -1 11.375 -1 8 Z " fill="#9C79E7" transform="translate(232,98)"/>
<path d="M0 0 C2.875 0.25 2.875 0.25 6 1 C7.375 3.0625 7.375 3.0625 8 5 C6.68 5.33 5.36 5.66 4 6 C0 1.125 0 1.125 0 0 Z " fill="#8F68EB" transform="translate(286,98)"/>
<path d="M0 0 C0.33 0.99 0.66 1.98 1 3 C1.99 2.67 2.98 2.34 4 2 C2.25 7.75 2.25 7.75 0 10 C0 9.01 0 8.02 0 7 C-0.99 6.67 -1.98 6.34 -3 6 C-2.34 6 -1.68 6 -1 6 C-0.67 4.02 -0.34 2.04 0 0 Z " fill="#9E7BE8" transform="translate(343,278)"/>
<path d="M0 0 C2.97 0.495 2.97 0.495 6 1 C6.33 2.32 6.66 3.64 7 5 C6.01 5.33 5.02 5.66 4 6 C3.34 4.68 2.68 3.36 2 2 C1.34 2 0.68 2 0 2 C0 1.34 0 0.68 0 0 Z " fill="#926AEE" transform="translate(231,262)"/>
<path d="M0 0 C2.97 0.33 5.94 0.66 9 1 C8.01 1.495 8.01 1.495 7 2 C7 2.66 7 3.32 7 4 C7.66 4 8.32 4 9 4 C9 4.66 9 5.32 9 6 C6.69 5.67 4.38 5.34 2 5 C2.66 4.67 3.32 4.34 4 4 C4 3.34 4 2.68 4 2 C2.68 1.34 1.36 0.68 0 0 Z " fill="#A484E8" transform="translate(224,260)"/>
<path d="M0 0 C2.0625 1.75 2.0625 1.75 4 4 C3.75 6.25 3.75 6.25 3 8 C3 7.01 3 6.02 3 5 C2.401875 5.226875 1.80375 5.45375 1.1875 5.6875 C0.465625 5.790625 -0.25625 5.89375 -1 6 C-2.75 4.5625 -2.75 4.5625 -4 3 C-2.68 2.01 -1.36 1.02 0 0 Z " fill="#9A74EA" transform="translate(237,285)"/>
<path d="M0 0 C1.98 0 3.96 0 6 0 C5.67 0.99 5.34 1.98 5 3 C2.69 3.33 0.38 3.66 -2 4 C-1.34 2.68 -0.68 1.36 0 0 Z " fill="#8D66E8" transform="translate(223,261)"/>
<path d="M0 0 C1.32 0.33 2.64 0.66 4 1 C4 3.64 4 6.28 4 9 C3.34 9 2.68 9 2 9 C1.34 6.03 0.68 3.06 0 0 Z " fill="#9467EF" transform="translate(360,267)"/>
<path d="M0 0 C0 0.99 0 1.98 0 3 C-2.25 4.1875 -2.25 4.1875 -5 5 C-7.3125 3.625 -7.3125 3.625 -9 2 C-3.375 0 -3.375 0 0 0 Z " fill="#9164ED" transform="translate(352,172)"/>
<path d="M0 0 C0.66 0.66 1.32 1.32 2 2 C3.98821313 2.39764263 5.98944339 2.73775349 8 3 C8 3.33 8 3.66 8 4 C6.02 4 4.04 4 2 4 C1.67 4.99 1.34 5.98 1 7 C0.01 6.01 -0.98 5.02 -2 4 C-1.34 4 -0.68 4 0 4 C0 2.68 0 1.36 0 0 Z " fill="#A687E9" transform="translate(260,286)"/>
<path d="M0 0 C0.5775 0.226875 1.155 0.45375 1.75 0.6875 C0.6671875 1.30625 0.6671875 1.30625 -0.4375 1.9375 C-3.22969862 3.67486803 -5.72012585 5.59131857 -8.25 7.6875 C-6.86345583 3.41232214 -5.12511737 -0.71182186 0 0 Z " fill="#E9DEFB" transform="translate(224.25,265.3125)"/>
<path d="M0 0 C0 0.99 0 1.98 0 3 C-1.875 3.625 -1.875 3.625 -4 4 C-4.66 3.34 -5.32 2.68 -6 2 C-6 1.34 -6 0.68 -6 0 C-3 -1 -3 -1 0 0 Z " fill="#9670ED" transform="translate(382,263)"/>
<path d="M0 0 C1 3 1 3 0.1875 5.625 C-1 8 -1 8 -3 9 C-3.66 7.68 -4.32 6.36 -5 5 C-3.35 3.35 -1.7 1.7 0 0 Z " fill="#946FE7" transform="translate(301,283)"/>
<path d="M0 0 C0.66 0 1.32 0 2 0 C2.82638376 2.89234315 3 4.88742431 3 8 C2.34 8 1.68 8 1 8 C-0.35439668 5.29120665 -0.06501451 2.99066732 0 0 Z " fill="#8D66E6" transform="translate(212,278)"/>
<path d="M0 0 C2.31 0.66 4.62 1.32 7 2 C6.01 2.66 5.02 3.32 4 4 C3.01 3.67 2.02 3.34 1 3 C1 3.66 1 4.32 1 5 C0.01 4.67 -0.98 4.34 -2 4 C-1.34 4 -0.68 4 0 4 C0 2.68 0 1.36 0 0 Z " fill="#A482E9" transform="translate(380,151)"/>
<path d="M0 0 C2.31 0 4.62 0 7 0 C6.67 0.99 6.34 1.98 6 3 C3.69 3 1.38 3 -1 3 C-0.67 2.01 -0.34 1.02 0 0 Z " fill="#8E63EC" transform="translate(206,210)"/>
<path d="M0 0 C1.32 1.32 2.64 2.64 4 4 C2.68 4 1.36 4 0 4 C-0.33 4.66 -0.66 5.32 -1 6 C-1.66 5.01 -2.32 4.02 -3 3 C-2.01 2.67 -1.02 2.34 0 2 C0 1.34 0 0.68 0 0 Z " fill="#A179E6" transform="translate(294,101)"/>
<path d="M0 0 C0.66 0 1.32 0 2 0 C2.33 2.97 2.66 5.94 3 9 C2.34 8.67 1.68 8.34 1 8 C1 6.68 1 5.36 1 4 C0.01 4.33 -0.98 4.66 -2 5 C-1.34 3.35 -0.68 1.7 0 0 Z " fill="#A387E0" transform="translate(235,53)"/>
<path d="M0 0 C2.475 0.495 2.475 0.495 5 1 C5 2.32 5 3.64 5 5 C3.68 4.67 2.36 4.34 1 4 C0.67 2.68 0.34 1.36 0 0 Z " fill="#9062F4" transform="translate(338,284)"/>
<path d="M0 0 C2.31 0.33 4.62 0.66 7 1 C7 1.66 7 2.32 7 3 C5.02 3 3.04 3 1 3 C0.67 2.01 0.34 1.02 0 0 Z " fill="#8F62F3" transform="translate(366,275)"/>
<path d="M0 0 C0.99 0 1.98 0 3 0 C3 1.32 3 2.64 3 4 C2.34 4 1.68 4 1 4 C1 5.65 1 7.3 1 9 C0.67 9 0.34 9 0 9 C0 6.03 0 3.06 0 0 Z " fill="#9275DD" transform="translate(315,247)"/>
<path d="M0 0 C1.65 0.33 3.3 0.66 5 1 C5 1.66 5 2.32 5 3 C5.99 3.33 6.98 3.66 8 4 C7.01 4.495 7.01 4.495 6 5 C3.64018187 4.06421005 1.30368736 3.06652192 -1 2 C-0.67 1.34 -0.34 0.68 0 0 Z " fill="#9161F3" transform="translate(219,192)"/>
<path d="M0 0 C1.67542976 0.28604898 3.34385343 0.61781233 5 1 C2.61426621 2.89213369 0.92824652 4.02391783 -2 5 C-1.125 1.125 -1.125 1.125 0 0 Z " fill="#9A77EC" transform="translate(347,155)"/>
</svg>
