<svg id="svg" version="1.1" xmlns="http://www.w3.org/2000/svg" xmlns:xlink="http://www.w3.org/1999/xlink" width="400" height="309.8591549295774" viewBox="0, 0, 400,309.8591549295774"><g id="svgg"><path id="path0" d="M163.992 41.163 C 161.699 45.583,160.831 48.323,159.704 54.703 C 159.252 57.262,159.310 62.963,159.817 65.736 C 161.993 77.639,166.195 83.659,177.101 90.496 C 191.203 99.336,196.935 109.999,190.456 115.339 C 188.407 117.028,183.120 119.218,178.527 120.280 C 168.989 122.485,165.589 122.848,154.264 122.869 C 146.671 122.883,143.936 122.775,141.248 122.357 C 136.227 121.577,135.218 122.139,136.998 124.723 C 138.220 126.496,142.759 130.682,145.426 132.497 C 151.406 136.566,155.271 138.392,162.348 140.493 C 163.722 140.900,164.181 140.846,164.758 140.208 C 165.944 138.898,165.308 138.207,162.126 137.346 C 160.871 137.007,159.566 136.612,159.225 136.468 C 158.884 136.325,158.256 136.071,157.829 135.905 C 153.122 134.074,147.095 130.431,143.953 127.519 C 141.819 125.540,142.310 125.086,146.058 125.572 C 151.079 126.224,164.203 125.883,169.457 124.964 C 170.310 124.815,171.984 124.533,173.178 124.336 C 188.955 121.737,195.729 117.371,195.779 109.767 C 195.828 102.421,189.474 94.521,177.822 87.442 C 166.683 80.674,162.196 72.199,162.560 58.619 C 162.801 49.641,164.673 44.187,166.381 47.489 C 167.185 49.045,171.084 52.713,173.953 54.615 C 176.373 56.219,179.338 57.876,187.752 62.326 C 200.248 68.936,206.906 73.926,209.592 78.693 C 212.504 83.864,212.720 84.920,213.022 95.504 C 213.289 104.874,213.464 106.002,215.047 108.531 C 219.652 115.888,234.618 117.075,245.736 110.966 C 254.550 106.124,257.130 105.495,260.775 107.303 C 261.031 107.430,262.287 107.908,263.566 108.366 C 264.845 108.824,266.171 109.324,266.512 109.477 C 266.853 109.631,269.084 110.393,271.470 111.170 C 277.584 113.162,277.683 113.719,272.001 114.151 C 270.176 114.290,268.333 114.490,267.907 114.596 C 267.481 114.702,266.364 114.912,265.426 115.062 C 260.866 115.792,254.402 117.400,252.950 118.166 C 252.654 118.322,252.224 118.450,251.996 118.450 C 251.767 118.450,250.684 118.804,249.588 119.237 C 242.499 122.042,239.201 124.013,233.294 128.979 C 231.781 130.250,230.473 131.376,230.388 131.481 C 230.302 131.586,229.116 132.532,227.752 133.584 C 226.388 134.636,225.085 135.655,224.857 135.847 C 222.718 137.658,212.285 143.256,211.049 143.256 C 210.791 143.256,210.503 143.379,210.410 143.530 C 210.316 143.681,209.855 143.878,209.384 143.967 C 208.913 144.057,206.713 144.588,204.496 145.147 C 196.994 147.040,186.894 146.521,178.295 143.801 C 176.145 143.121,173.684 143.017,171.641 143.520 C 170.952 143.690,169.411 143.983,168.217 144.171 C 165.940 144.530,159.698 145.610,157.054 146.102 C 156.202 146.260,154.667 146.522,153.643 146.684 C 151.565 147.013,149.687 147.335,145.581 148.069 C 144.047 148.344,142.023 148.690,141.085 148.839 C 139.478 149.095,136.200 149.678,129.767 150.854 C 128.233 151.135,126.140 151.494,125.116 151.652 C 124.093 151.810,122.440 152.069,121.443 152.226 C 120.331 152.402,118.415 152.401,116.482 152.224 C 105.964 151.258,104.695 151.232,104.101 151.966 C 103.006 153.318,103.912 153.898,107.788 154.326 C 118.122 155.468,120.369 155.458,126.977 154.244 C 128.512 153.962,130.465 153.619,131.318 153.483 C 132.171 153.347,133.775 153.078,134.884 152.886 C 135.992 152.694,137.667 152.407,138.605 152.249 C 139.543 152.091,141.566 151.740,143.101 151.469 C 144.636 151.197,146.659 150.852,147.597 150.702 C 148.535 150.552,150.488 150.217,151.938 149.959 C 157.808 148.912,162.106 148.161,163.721 147.900 C 164.659 147.749,166.124 147.495,166.977 147.337 C 171.909 146.419,174.820 146.023,175.504 146.175 C 175.930 146.270,177.326 146.636,178.605 146.987 C 199.295 152.675,215.925 147.940,235.814 130.698 C 240.460 126.670,244.338 124.384,250.543 122.016 C 254.750 120.410,262.209 118.448,266.357 117.856 C 267.806 117.650,269.690 117.355,270.543 117.201 C 274.511 116.486,281.252 116.271,286.977 116.676 C 290.758 116.944,292.275 117.190,297.054 118.308 C 300.705 119.162,301.723 119.238,302.264 118.698 C 303.304 117.657,302.336 116.577,299.845 115.998 C 298.907 115.780,297.721 115.482,297.209 115.337 C 295.918 114.970,290.309 113.493,288.992 113.174 C 283.577 111.858,271.792 108.407,269.922 107.589 C 269.581 107.440,268.674 107.114,267.907 106.864 C 267.140 106.614,265.833 106.116,265.003 105.758 C 260.635 103.875,256.872 103.221,253.971 103.843 C 252.039 104.258,251.249 104.614,246.667 107.137 C 238.887 111.421,233.134 112.683,226.084 111.652 C 217.521 110.400,216.214 108.212,215.809 94.445 C 215.402 80.638,213.157 75.813,203.901 68.856 C 199.731 65.722,197.356 64.292,188.682 59.693 C 180.846 55.539,179.744 54.910,176.124 52.530 C 169.555 48.210,167.666 45.675,166.500 39.612 C 166.048 37.260,166.001 37.290,163.992 41.163 M131.318 174.574 C 130.977 174.720,130.354 174.850,129.934 174.862 C 126.797 174.951,120.942 179.639,118.961 183.647 C 111.914 197.910,128.365 212.946,141.907 204.619 C 144.727 202.886,143.091 201.235,139.969 202.663 C 130.200 207.131,120.145 201.137,120.160 190.853 C 120.174 180.496,130.298 174.189,139.802 178.616 C 143.561 180.367,144.839 178.311,141.185 176.391 C 139.784 175.656,139.183 175.450,135.933 174.598 C 134.438 174.206,132.200 174.194,131.318 174.574 M222.193 174.751 C 221.646 175.298,221.675 174.210,221.691 193.643 C 221.704 208.357,221.483 207.648,225.826 206.931 C 227.975 206.576,228.076 204.341,225.943 204.341 C 224.132 204.341,224.186 204.803,224.186 189.443 C 224.186 176.126,224.153 175.260,223.619 174.777 C 222.919 174.144,222.802 174.141,222.193 174.751 M180.871 175.891 C 180.733 176.105,180.550 178.023,180.465 180.155 L 180.310 184.031 178.605 184.189 C 175.203 184.505,175.025 186.977,178.404 186.977 C 180.566 186.977,180.465 186.616,180.465 194.338 C 180.465 202.392,180.622 203.209,182.541 205.128 C 184.446 207.033,188.333 207.604,189.271 206.117 C 189.872 205.165,189.129 204.515,187.241 204.341 C 183.370 203.985,182.946 202.992,182.946 194.288 C 182.946 186.723,182.851 186.977,185.664 186.977 C 187.888 186.977,188.837 186.609,188.837 185.748 C 188.837 184.616,187.994 184.186,185.776 184.186 C 182.966 184.186,182.946 184.154,182.946 179.661 C 182.946 176.500,182.865 175.849,182.455 175.692 C 181.692 175.399,181.145 175.468,180.871 175.891 M280.372 175.876 C 280.125 176.123,280.000 177.461,280.000 179.845 C 280.000 183.981,279.896 184.186,277.785 184.186 C 276.617 184.186,276.215 184.328,275.832 184.875 C 274.925 186.170,275.676 186.977,277.790 186.977 C 280.031 186.977,280.000 186.870,280.000 194.560 C 280.000 201.708,280.147 202.828,281.309 204.547 C 282.884 206.875,287.740 207.962,288.684 206.198 C 289.269 205.104,288.571 204.341,286.986 204.341 C 282.882 204.341,282.481 203.444,282.481 194.277 C 282.481 186.412,282.263 186.977,285.297 186.977 C 289.516 186.977,289.321 184.455,285.080 184.186 L 282.636 184.031 282.481 180.155 C 282.298 175.581,281.759 174.489,280.372 175.876 M157.209 184.150 C 149.425 186.714,145.978 195.834,150.533 201.816 C 154.670 207.250,161.150 208.493,166.548 204.887 C 168.598 203.519,169.302 203.656,169.302 205.424 C 169.302 206.702,170.418 207.212,171.296 206.334 C 171.962 205.668,171.997 195.096,171.341 192.631 C 169.708 186.495,162.756 182.323,157.209 184.150 M201.705 184.147 C 193.402 186.311,190.322 196.865,196.169 203.117 C 200.225 207.453,205.488 208.161,210.658 205.068 C 213.054 203.634,213.536 203.677,213.703 205.341 C 213.820 206.511,214.642 207.126,215.426 206.630 C 215.917 206.320,215.969 205.619,215.969 199.337 L 215.969 192.387 214.952 190.322 C 212.572 185.492,206.826 182.813,201.705 184.147 M258.800 184.417 C 254.316 185.911,251.663 190.871,253.829 193.711 C 254.789 194.970,255.185 195.137,260.000 196.313 C 262.047 196.812,264.140 197.345,264.651 197.496 C 265.163 197.647,266.106 197.860,266.747 197.970 C 270.170 198.554,268.494 202.540,264.217 203.985 C 261.459 204.917,257.544 203.594,255.936 201.185 C 255.272 200.191,254.550 199.867,253.643 200.155 C 251.101 200.962,255.879 205.736,260.310 206.817 C 264.947 207.948,271.628 203.617,271.628 199.482 C 271.628 197.799,269.509 195.349,268.053 195.349 C 267.648 195.349,266.995 195.223,266.604 195.070 C 266.212 194.917,264.984 194.557,263.876 194.270 C 261.925 193.766,261.464 193.654,258.144 192.881 C 255.278 192.214,254.874 191.235,256.622 189.192 C 259.648 185.658,265.447 185.654,268.285 189.185 C 269.794 191.064,271.318 191.072,271.318 189.202 C 271.318 185.738,263.643 182.804,258.800 184.417 M231.319 184.650 C 231.108 184.904,231.009 185.358,231.101 185.657 C 231.435 186.754,232.828 190.281,233.629 192.062 C 234.081 193.068,235.417 196.289,236.596 199.220 L 238.741 204.550 237.422 207.934 C 235.062 213.993,234.913 214.884,236.260 214.884 C 236.792 214.884,238.450 212.148,238.450 211.270 C 238.450 211.168,238.787 210.300,239.200 209.341 C 240.078 207.298,241.986 202.605,245.015 195.039 C 246.210 192.054,247.451 189.027,247.773 188.312 C 248.700 186.254,248.881 184.553,248.201 184.292 C 247.480 184.015,247.006 184.730,245.503 188.353 C 244.862 189.899,244.210 191.442,244.054 191.783 C 243.689 192.579,243.000 194.257,241.763 197.364 C 240.217 201.248,239.908 201.097,237.514 195.287 C 236.439 192.678,235.188 189.705,234.734 188.682 C 234.279 187.659,233.724 186.363,233.500 185.802 C 233.277 185.241,232.842 184.648,232.536 184.484 C 231.813 184.097,231.773 184.103,231.319 184.650 M164.100 187.332 C 171.371 190.977,170.402 201.724,162.600 203.973 C 153.683 206.544,147.442 195.577,154.030 188.914 C 156.495 186.422,160.902 185.729,164.100 187.332 M208.301 187.189 C 214.094 189.597,215.317 197.520,210.579 201.951 C 204.999 207.171,195.674 203.080,195.662 195.407 C 195.652 188.986,202.270 184.683,208.301 187.189 " stroke="none" fill="#966fea" fill-rule="evenodd"></path><path id="path1" d="M0.000 155.039 L 0.000 310.078 200.000 310.078 L 400.000 310.078 400.000 155.039 L 400.000 0.000 200.000 0.000 L 0.000 0.000 0.000 155.039 M166.565 37.102 C 166.955 37.455,167.132 38.053,167.132 39.018 C 167.132 44.479,171.422 49.370,180.873 54.687 C 184.778 56.883,187.711 58.465,193.160 61.311 C 194.600 62.063,196.156 62.947,196.619 63.277 C 197.081 63.606,197.557 63.876,197.675 63.876 C 197.955 63.876,202.807 67.041,203.411 67.618 C 203.667 67.862,204.434 68.478,205.116 68.987 C 208.243 71.319,209.397 72.520,212.010 76.166 C 215.682 81.290,216.434 84.364,216.434 94.253 C 216.434 108.552,218.516 111.113,230.128 111.106 C 232.663 111.105,235.338 110.937,236.174 110.726 C 236.999 110.518,238.233 110.202,238.915 110.022 C 240.232 109.676,245.252 107.316,247.230 106.113 C 251.421 103.563,252.858 103.103,256.589 103.113 C 259.507 103.121,262.421 103.740,263.395 104.559 C 263.557 104.695,263.915 104.806,264.190 104.806 C 264.465 104.806,265.249 105.076,265.932 105.406 C 266.615 105.736,267.583 106.104,268.083 106.224 C 268.583 106.344,269.132 106.537,269.302 106.654 C 269.473 106.770,270.240 107.048,271.008 107.273 C 272.943 107.838,276.926 109.145,277.674 109.460 C 278.016 109.603,278.643 109.791,279.070 109.878 C 279.496 109.964,280.333 110.176,280.930 110.349 C 281.527 110.521,282.504 110.795,283.101 110.957 C 283.698 111.119,285.023 111.490,286.047 111.782 C 287.070 112.074,288.465 112.431,289.147 112.574 C 291.172 112.999,292.765 113.407,294.574 113.965 C 295.512 114.254,296.803 114.559,297.444 114.642 C 298.084 114.726,298.686 114.919,298.780 115.072 C 298.874 115.224,299.397 115.349,299.941 115.350 C 301.696 115.352,302.946 116.378,302.946 117.817 C 302.946 119.393,301.812 120.143,300.122 119.683 C 292.749 117.677,290.390 117.390,281.240 117.388 C 273.114 117.386,269.156 117.793,261.860 119.380 C 261.008 119.566,259.891 119.791,259.380 119.880 C 258.868 119.969,258.171 120.154,257.829 120.290 C 257.488 120.426,255.817 120.984,254.115 121.530 C 250.774 122.601,246.538 124.266,246.062 124.695 C 245.900 124.842,245.582 124.961,245.355 124.961 C 244.695 124.961,239.111 128.712,236.744 130.745 C 235.550 131.771,234.248 132.878,233.850 133.204 C 233.452 133.531,232.824 134.054,232.455 134.367 C 232.085 134.680,230.736 135.727,229.457 136.693 C 228.178 137.659,227.062 138.524,226.977 138.615 C 226.689 138.921,220.939 142.500,220.000 142.957 C 219.488 143.206,219.000 143.485,218.915 143.577 C 218.724 143.783,215.298 145.442,214.341 145.791 C 213.957 145.932,213.329 146.180,212.946 146.343 C 211.313 147.036,207.499 148.217,206.894 148.217 C 206.533 148.217,206.163 148.339,206.071 148.487 C 205.979 148.636,205.239 148.837,204.425 148.936 C 203.611 149.034,201.969 149.257,200.775 149.431 C 198.082 149.823,189.275 149.823,186.977 149.431 C 186.039 149.271,184.606 149.054,183.792 148.948 C 182.978 148.843,182.238 148.636,182.146 148.487 C 182.054 148.339,181.613 148.217,181.167 148.217 C 180.355 148.217,180.032 148.137,176.647 147.103 C 174.697 146.508,175.327 146.453,167.287 147.918 C 166.434 148.073,165.248 148.280,164.651 148.378 C 162.264 148.768,160.337 149.103,157.674 149.590 C 152.711 150.499,151.197 150.758,149.302 151.022 C 147.414 151.286,146.117 151.514,141.395 152.415 C 138.794 152.911,136.668 153.269,133.333 153.771 C 132.395 153.912,130.372 154.267,128.837 154.560 C 123.715 155.535,122.651 155.696,120.155 155.871 C 118.791 155.967,116.349 155.896,114.729 155.713 C 113.109 155.530,110.178 155.227,108.217 155.039 C 103.970 154.633,103.256 154.282,103.256 152.603 C 103.256 150.492,103.483 150.462,113.023 151.340 C 119.379 151.924,120.530 151.873,126.822 150.725 C 127.760 150.554,129.783 150.184,131.318 149.902 C 134.214 149.370,136.106 149.057,139.535 148.543 C 140.643 148.377,142.597 148.022,143.876 147.753 C 145.155 147.485,147.109 147.125,148.217 146.952 C 149.326 146.780,151.000 146.511,151.938 146.356 C 152.876 146.200,154.502 145.944,155.550 145.787 C 156.599 145.630,157.586 145.422,157.744 145.324 C 158.160 145.067,161.161 144.562,168.217 143.563 C 169.240 143.418,170.915 143.120,171.938 142.902 C 174.444 142.367,176.367 142.402,177.674 143.006 C 178.271 143.281,179.318 143.602,180.000 143.718 C 180.682 143.835,181.798 144.044,182.481 144.182 C 189.616 145.634,190.406 145.736,194.448 145.736 C 197.582 145.736,199.414 145.570,201.581 145.090 C 206.077 144.094,207.205 143.856,208.297 143.669 C 208.853 143.575,209.385 143.373,209.479 143.222 C 209.572 143.070,209.859 142.946,210.115 142.946 C 210.794 142.946,215.814 140.626,218.906 138.882 C 220.929 137.742,224.897 135.200,225.116 134.905 C 225.202 134.790,225.829 134.285,226.512 133.784 C 227.194 133.282,227.822 132.796,227.907 132.704 C 227.992 132.612,228.481 132.217,228.992 131.825 C 229.504 131.434,230.620 130.499,231.473 129.748 C 232.326 128.997,233.512 127.955,234.109 127.432 C 236.946 124.948,243.129 121.093,246.047 119.989 C 246.388 119.860,247.473 119.391,248.458 118.947 C 249.443 118.503,250.387 118.140,250.555 118.140 C 250.723 118.140,252.352 117.651,254.174 117.054 C 255.995 116.457,257.799 115.969,258.182 115.969 C 258.565 115.969,258.964 115.829,259.070 115.659 C 259.175 115.488,259.697 115.349,260.229 115.349 C 260.761 115.349,261.625 115.221,262.149 115.064 C 263.702 114.599,268.147 113.828,271.544 113.434 C 275.077 113.024,275.049 112.905,271.163 111.778 C 269.540 111.308,267.799 110.677,265.581 109.756 C 258.926 106.992,255.651 106.650,252.162 108.355 C 250.921 108.961,249.843 109.457,249.765 109.457 C 249.688 109.457,248.889 109.921,247.991 110.487 C 242.691 113.827,236.821 115.519,230.698 115.473 C 223.391 115.417,218.384 113.629,215.271 109.964 C 214.888 109.512,214.574 109.004,214.574 108.835 C 214.574 108.666,214.468 108.527,214.339 108.527 C 214.072 108.527,213.554 107.389,212.998 105.581 C 212.764 104.820,212.528 100.990,212.388 95.659 C 212.167 87.281,212.029 85.516,211.489 84.186 C 211.350 83.845,210.984 82.938,210.674 82.171 C 210.364 81.403,209.859 80.405,209.552 79.952 C 209.244 79.499,208.992 78.976,208.992 78.789 C 208.992 78.602,208.883 78.450,208.749 78.450 C 208.615 78.450,208.275 78.058,207.992 77.580 C 207.374 76.534,204.966 74.060,203.078 72.533 C 201.341 71.128,196.730 67.907,196.456 67.907 C 196.342 67.907,195.523 67.452,194.636 66.895 C 193.749 66.338,192.256 65.479,191.318 64.986 C 190.380 64.492,189.242 63.831,188.789 63.517 C 188.337 63.203,187.772 62.946,187.534 62.946 C 187.296 62.946,186.968 62.824,186.806 62.674 C 186.644 62.525,184.977 61.599,183.101 60.616 C 173.625 55.654,166.879 50.686,166.045 48.058 C 165.782 47.230,165.084 47.276,164.821 48.140 C 162.920 54.392,162.457 59.945,163.406 65.116 C 163.766 67.078,164.139 69.137,164.235 69.693 C 164.331 70.249,164.534 70.780,164.685 70.874 C 164.837 70.968,164.961 71.242,164.961 71.483 C 164.961 71.875,166.326 74.817,167.477 76.905 C 169.259 80.139,172.504 83.287,177.054 86.195 C 177.310 86.358,178.266 86.985,179.178 87.587 C 180.091 88.189,180.913 88.682,181.004 88.682 C 182.108 88.682,190.897 96.812,192.813 99.605 C 194.378 101.887,195.969 105.049,195.969 105.878 C 195.969 106.291,196.109 106.716,196.279 106.822 C 196.672 107.064,196.688 112.075,196.298 112.795 C 196.138 113.091,195.919 113.752,195.812 114.264 C 195.603 115.263,192.072 118.941,190.698 119.592 C 187.006 121.339,185.063 122.171,184.675 122.171 C 184.422 122.171,183.895 122.297,183.503 122.452 C 181.097 123.403,177.099 124.384,173.333 124.946 C 172.395 125.086,170.302 125.415,168.682 125.677 C 162.893 126.612,158.132 126.802,149.640 126.436 C 142.890 126.146,142.854 126.173,146.491 128.837 C 146.956 129.178,147.709 129.771,148.165 130.155 C 148.620 130.538,149.110 130.852,149.254 130.852 C 149.399 130.853,149.933 131.149,150.442 131.512 C 151.531 132.287,157.361 135.194,157.827 135.194 C 158.004 135.194,158.390 135.317,158.686 135.468 C 159.827 136.048,160.850 136.403,162.896 136.928 C 165.669 137.639,166.939 139.900,165.177 140.989 C 164.634 141.324,161.518 141.177,161.139 140.798 C 160.956 140.615,160.520 140.465,160.171 140.465 C 158.936 140.465,153.988 138.400,150.388 136.383 C 148.704 135.439,144.403 132.704,144.186 132.438 C 144.101 132.334,143.333 131.700,142.481 131.030 C 138.240 127.697,135.321 124.093,135.685 122.641 C 136.078 121.077,137.125 121.029,145.486 122.192 C 149.273 122.719,159.683 122.530,165.426 121.830 C 172.231 121.001,173.615 120.762,178.760 119.531 C 179.953 119.245,181.246 118.938,181.632 118.849 C 182.019 118.759,182.411 118.563,182.504 118.413 C 182.596 118.262,182.945 118.140,183.278 118.140 C 183.612 118.140,184.127 118.017,184.423 117.866 C 184.719 117.716,186.040 117.078,187.359 116.449 C 191.397 114.522,193.090 111.749,192.262 108.415 C 191.594 105.723,191.177 104.496,190.932 104.496 C 190.803 104.496,190.698 104.357,190.698 104.187 C 190.698 103.140,184.759 96.551,182.173 94.729 C 181.689 94.388,181.142 93.965,180.957 93.790 C 180.494 93.353,175.882 90.434,174.681 89.818 C 174.142 89.542,173.515 89.139,173.285 88.922 C 173.056 88.705,172.310 88.123,171.628 87.630 C 167.409 84.578,160.930 75.541,160.930 72.709 C 160.930 72.476,160.806 72.208,160.654 72.114 C 160.503 72.020,160.302 71.489,160.208 70.933 C 160.049 69.986,159.807 68.800,159.085 65.426 C 158.697 63.613,158.709 56.104,159.102 54.109 C 159.271 53.256,159.530 51.930,159.678 51.163 C 160.153 48.708,161.158 45.401,161.846 44.031 C 164.218 39.303,165.683 36.589,165.862 36.589 C 165.937 36.589,166.253 36.820,166.565 37.102 M137.187 174.236 C 140.079 175.092,140.763 175.374,142.248 176.320 C 145.581 178.442,143.261 181.219,139.777 179.278 C 131.387 174.604,120.620 181.139,120.620 190.905 C 120.620 195.495,123.884 200.524,128.062 202.371 C 130.141 203.290,130.784 203.411,133.580 203.406 C 136.636 203.401,137.729 203.152,140.065 201.926 C 144.110 199.803,145.516 203.453,141.505 205.662 C 127.343 213.459,111.233 197.677,118.475 183.101 C 120.408 179.210,126.154 174.578,129.051 174.575 C 129.510 174.574,129.972 174.434,130.078 174.264 C 130.317 173.876,135.898 173.854,137.187 174.236 M224.239 174.467 C 224.773 174.950,224.806 175.816,224.806 189.156 L 224.806 203.332 226.030 203.527 C 227.950 203.834,228.842 205.617,227.704 206.875 C 226.900 207.763,222.345 207.700,221.521 206.789 C 220.666 205.845,220.434 176.783,221.267 175.026 C 221.849 173.800,223.218 173.543,224.239 174.467 M182.520 175.069 C 183.564 175.349,183.876 176.524,183.876 180.170 L 183.876 183.566 186.012 183.566 C 188.489 183.566,189.535 184.150,189.535 185.533 C 189.535 187.092,188.707 187.597,186.153 187.597 L 183.876 187.597 183.876 194.687 C 183.876 203.163,183.958 203.411,186.775 203.411 C 189.389 203.411,190.805 204.805,189.924 206.509 C 188.679 208.916,182.780 207.366,180.880 204.133 L 180.000 202.636 179.898 195.116 L 179.797 187.597 178.136 187.597 C 175.950 187.597,174.843 186.384,175.634 184.854 C 176.189 183.781,176.660 183.566,178.450 183.566 L 179.794 183.566 179.897 179.664 C 180.018 175.083,180.357 174.489,182.520 175.069 M282.344 175.323 C 282.867 175.704,282.966 176.264,283.101 179.586 L 283.256 183.411 285.473 183.566 C 290.387 183.910,290.344 187.447,285.423 187.659 L 283.256 187.752 283.256 194.782 C 283.256 202.990,283.395 203.411,286.116 203.411 C 288.276 203.411,289.612 204.329,289.612 205.815 C 289.612 208.307,283.776 208.106,281.353 205.530 C 279.425 203.482,279.380 203.242,279.380 195.054 L 279.380 187.597 277.752 187.587 C 275.917 187.576,275.174 187.157,274.875 185.965 C 274.539 184.630,275.843 183.566,277.815 183.566 L 279.380 183.566 279.380 179.792 C 279.380 175.114,280.253 173.798,282.344 175.323 M162.946 183.415 C 167.997 184.921,171.520 188.785,172.229 193.600 C 172.671 196.601,172.465 205.905,171.939 206.709 C 170.985 208.165,168.947 207.494,168.528 205.585 C 168.277 204.441,168.325 204.441,166.648 205.594 C 156.893 212.306,143.795 200.883,149.014 190.216 C 149.879 188.449,152.926 185.116,153.677 185.116 C 153.914 185.116,154.109 185.011,154.109 184.882 C 154.109 184.604,155.363 184.025,157.246 183.434 C 159.068 182.861,161.068 182.855,162.946 183.415 M207.194 183.378 C 210.172 184.160,210.846 184.552,213.211 186.872 C 216.301 189.902,217.053 192.583,217.054 200.563 C 217.054 206.529,216.775 207.425,214.908 207.437 C 213.949 207.443,213.023 206.610,213.023 205.740 C 213.023 204.717,212.715 204.608,211.755 205.291 C 205.741 209.573,197.029 207.452,193.728 200.902 C 192.044 197.559,191.932 192.974,193.470 190.282 C 193.778 189.743,194.274 188.884,194.574 188.372 C 196.698 184.742,202.959 182.264,207.194 183.378 M264.984 183.404 C 267.988 184.186,271.857 187.175,271.974 188.803 C 272.177 191.641,269.981 192.244,268.045 189.881 C 266.687 188.225,264.225 186.977,262.313 186.977 C 258.847 186.977,254.649 191.227,257.364 191.988 C 258.239 192.233,260.392 192.787,262.016 193.186 C 271.130 195.424,272.646 196.473,272.136 200.193 C 271.032 208.245,257.840 210.034,252.924 202.799 C 250.823 199.708,254.100 197.985,256.615 200.860 C 259.525 204.187,263.721 204.496,266.744 201.606 C 268.673 199.762,267.531 198.140,264.304 198.140 C 263.918 198.140,263.516 198.000,263.411 197.829 C 263.305 197.659,262.784 197.519,262.252 197.519 C 261.720 197.519,260.856 197.381,260.332 197.211 C 259.808 197.041,258.365 196.616,257.125 196.266 C 247.013 193.409,254.755 180.739,264.984 183.404 M233.052 184.008 C 233.400 184.252,233.938 185.054,234.248 185.791 C 234.558 186.529,235.142 187.868,235.545 188.768 C 235.949 189.668,236.279 190.472,236.279 190.554 C 236.279 190.637,236.572 191.366,236.930 192.174 C 237.288 192.982,237.693 193.922,237.829 194.264 C 237.965 194.605,238.279 195.372,238.527 195.969 C 238.774 196.566,239.156 197.513,239.376 198.074 C 239.942 199.520,240.202 199.271,241.575 195.961 C 242.245 194.345,242.920 192.744,243.073 192.403 C 243.227 192.062,243.572 191.196,243.839 190.478 C 244.107 189.761,244.624 188.505,244.990 187.688 C 245.355 186.870,245.852 185.750,246.095 185.198 C 246.880 183.415,248.660 183.118,249.359 184.652 C 249.677 185.349,249.049 187.289,246.937 192.140 C 246.703 192.677,246.512 193.202,246.512 193.306 C 246.512 193.410,246.219 194.156,245.861 194.965 C 245.088 196.708,244.867 197.251,244.223 198.979 C 243.955 199.697,243.469 200.883,243.141 201.615 C 242.814 202.347,241.686 205.109,240.636 207.752 C 237.644 215.278,237.268 215.859,235.703 215.363 C 234.379 214.943,234.447 213.443,235.958 209.767 C 236.098 209.426,236.576 208.266,237.021 207.189 C 237.882 205.104,238.015 204.044,237.527 203.174 C 236.815 201.905,235.659 199.231,235.659 198.852 C 235.659 198.626,235.531 198.199,235.375 197.903 C 234.817 196.843,233.488 193.777,233.488 193.550 C 233.488 193.422,233.074 192.484,232.568 191.465 C 232.062 190.446,231.642 189.403,231.636 189.147 C 231.629 188.891,231.421 188.293,231.172 187.816 C 229.745 185.079,230.987 182.562,233.052 184.008 M157.408 187.481 C 152.371 189.300,150.323 195.225,153.150 199.799 C 156.437 205.118,164.609 204.743,167.482 199.143 C 170.839 192.599,164.276 185.001,157.408 187.481 M201.998 187.401 C 193.205 190.655,195.232 203.411,204.542 203.411 C 213.295 203.411,216.219 191.901,208.434 188.090 C 207.803 187.781,207.045 187.404,206.748 187.252 C 206.020 186.880,203.167 186.969,201.998 187.401 " stroke="none" fill="#fbfbfc" fill-rule="evenodd"></path><path id="path2" d="M163.791 40.853 C 161.874 44.569,160.633 47.993,159.996 51.318 C 159.800 52.341,159.512 53.763,159.355 54.478 C 158.982 56.178,158.987 63.804,159.362 65.499 C 159.523 66.227,159.822 67.589,160.026 68.527 C 162.091 78.022,167.437 85.154,176.505 90.510 C 187.716 97.132,194.694 106.769,192.282 112.300 C 191.260 114.645,189.075 116.316,185.040 117.841 C 183.548 118.404,182.393 118.930,182.472 119.009 C 182.600 119.138,183.099 118.984,185.271 118.148 C 198.138 113.197,194.688 101.520,177.101 90.496 C 166.195 83.659,161.993 77.639,159.817 65.736 C 159.310 62.963,159.252 57.262,159.704 54.703 C 160.831 48.323,161.699 45.583,163.992 41.163 C 166.001 37.290,166.048 37.260,166.500 39.612 C 167.666 45.675,169.555 48.210,176.124 52.530 C 179.744 54.910,180.846 55.539,188.682 59.693 C 197.356 64.292,199.731 65.722,203.901 68.856 C 212.837 75.573,215.426 80.832,215.795 93.023 L 216.015 100.310 216.062 93.798 C 216.106 87.623,215.981 86.162,215.156 83.256 C 213.130 76.124,207.269 69.821,197.209 63.959 C 194.712 62.504,192.809 61.474,185.581 57.663 C 183.876 56.764,181.295 55.311,179.845 54.434 C 178.395 53.557,176.860 52.636,176.434 52.389 C 171.185 49.337,167.827 44.997,166.991 40.183 C 166.303 36.219,166.166 36.247,163.791 40.853 M164.380 47.364 C 161.944 53.356,161.811 64.520,164.095 71.163 C 166.562 78.337,170.477 82.979,177.822 87.442 C 193.878 97.197,200.230 109.502,193.038 116.916 C 190.172 119.870,182.194 122.851,173.178 124.336 C 171.984 124.533,170.310 124.815,169.457 124.964 C 164.203 125.883,151.079 126.224,146.058 125.572 C 142.310 125.086,141.819 125.540,143.953 127.519 C 147.074 130.412,153.416 134.247,157.752 135.864 C 158.136 136.007,158.764 136.260,159.147 136.427 C 159.531 136.593,160.871 137.007,162.126 137.346 C 165.314 138.209,166.052 139.043,164.704 140.262 C 163.872 141.016,163.982 141.032,158.760 139.372 C 155.797 138.430,150.479 135.877,147.907 134.162 C 144.944 132.186,144.688 132.000,142.946 130.562 C 134.566 123.647,134.068 121.241,141.248 122.358 C 148.349 123.463,171.736 122.727,172.991 121.359 C 173.094 121.247,172.550 121.251,171.783 121.367 C 167.266 122.054,165.719 122.193,159.481 122.466 C 152.500 122.772,145.053 122.536,139.905 121.847 C 133.640 121.007,134.778 124.441,142.946 131.018 C 150.552 137.142,163.206 142.576,165.068 140.518 C 166.371 139.079,165.399 137.832,162.358 137.041 C 156.877 135.615,149.749 131.971,145.581 128.463 C 142.981 126.275,142.798 125.668,144.806 125.891 C 147.038 126.139,163.664 126.070,166.047 125.803 C 167.240 125.669,168.915 125.430,169.767 125.272 C 170.620 125.114,172.643 124.753,174.264 124.469 C 175.884 124.185,177.977 123.749,178.915 123.500 C 179.853 123.251,181.039 122.938,181.550 122.804 C 196.222 118.969,200.200 110.974,192.789 100.217 C 191.071 97.722,187.350 93.771,185.271 92.235 C 184.589 91.730,183.822 91.118,183.566 90.873 C 183.003 90.334,176.195 85.891,175.932 85.891 C 174.235 85.891,167.785 78.586,165.804 74.419 C 163.151 68.837,161.900 59.221,163.110 53.703 C 163.285 52.903,163.583 51.550,163.771 50.698 C 164.621 46.851,165.239 46.278,166.486 48.179 C 169.021 52.042,173.844 55.454,184.961 61.247 C 204.792 71.580,210.967 77.429,212.401 87.235 C 212.607 88.643,212.640 88.698,212.674 87.690 C 212.725 86.190,211.999 83.446,211.021 81.444 C 207.524 74.282,202.410 70.080,187.752 62.326 C 179.338 57.876,176.373 56.219,173.953 54.615 C 171.084 52.713,167.185 49.045,166.381 47.489 C 165.750 46.268,164.848 46.212,164.380 47.364 M212.786 96.124 C 212.780 99.961,212.871 103.445,212.988 103.866 C 213.192 104.595,213.104 91.062,212.897 89.767 C 212.842 89.426,212.793 92.287,212.786 96.124 M216.168 102.020 C 215.831 112.820,231.556 115.458,246.667 107.137 C 251.249 104.614,252.039 104.258,253.971 103.843 C 256.872 103.221,260.635 103.875,265.003 105.758 C 265.833 106.116,267.140 106.614,267.907 106.864 C 268.674 107.114,269.581 107.440,269.922 107.589 C 271.792 108.407,283.577 111.858,288.992 113.174 C 290.309 113.493,295.918 114.970,297.209 115.337 C 297.721 115.482,298.907 115.780,299.845 115.998 C 303.142 116.765,303.814 118.983,300.791 119.119 L 299.690 119.169 300.727 119.296 C 301.858 119.435,302.953 118.723,302.936 117.859 C 302.907 116.396,301.886 116.029,288.992 112.843 C 284.512 111.736,276.712 109.489,272.879 108.202 C 270.418 107.375,269.022 106.868,262.481 104.427 C 260.324 103.622,259.551 103.495,256.566 103.456 L 253.132 103.411 249.589 105.249 C 238.320 111.098,237.495 111.362,230.388 111.407 C 220.847 111.467,217.376 109.172,216.423 102.171 L 216.211 100.620 216.168 102.020 M213.357 105.094 C 213.190 108.180,219.311 114.259,222.412 114.088 C 222.620 114.076,222.442 113.914,222.016 113.728 C 217.001 111.541,215.369 109.996,213.900 106.047 C 213.615 105.279,213.371 104.851,213.357 105.094 M253.225 107.117 C 252.227 107.527,250.064 108.617,248.419 109.539 C 244.544 111.710,241.730 113.035,240.046 113.481 C 239.304 113.678,238.778 113.920,238.876 114.018 C 239.240 114.382,244.983 112.055,247.132 110.673 C 254.571 105.887,257.849 105.844,268.062 110.399 C 268.403 110.551,269.868 111.041,271.318 111.487 C 276.638 113.124,276.667 113.269,271.783 113.790 C 267.436 114.254,259.022 115.758,258.641 116.140 C 258.384 116.396,259.363 116.283,261.551 115.802 C 262.744 115.540,264.488 115.204,265.426 115.057 C 266.364 114.909,267.481 114.702,267.907 114.596 C 268.333 114.490,270.176 114.290,272.001 114.151 C 277.683 113.719,277.584 113.162,271.470 111.170 C 269.084 110.393,266.853 109.631,266.512 109.477 C 266.171 109.324,264.845 108.821,263.566 108.361 C 262.287 107.900,260.961 107.407,260.620 107.265 C 257.993 106.169,255.646 106.122,253.225 107.117 M224.341 114.554 C 226.441 115.130,234.952 115.130,237.054 114.555 L 238.605 114.131 237.209 114.352 C 235.429 114.635,226.379 114.630,224.341 114.346 L 222.791 114.129 224.341 114.554 M256.434 116.619 C 256.008 116.770,254.149 117.389,252.303 117.994 C 243.425 120.903,239.711 123.074,230.956 130.470 C 221.330 138.603,214.062 142.590,205.116 144.645 C 203.922 144.919,202.318 145.308,201.550 145.509 C 199.385 146.076,188.913 145.950,186.047 145.322 C 183.635 144.794,178.381 143.538,176.360 143.007 C 175.141 142.687,173.868 142.806,168.408 143.754 C 166.636 144.062,165.366 144.373,165.585 144.446 C 166.000 144.584,169.479 144.052,171.641 143.520 C 173.684 143.017,176.145 143.121,178.295 143.801 C 186.894 146.521,196.994 147.040,204.496 145.147 C 206.713 144.588,208.913 144.057,209.384 143.967 C 209.855 143.878,210.316 143.681,210.410 143.530 C 210.503 143.379,210.791 143.256,211.049 143.256 C 212.285 143.256,222.718 137.658,224.857 135.847 C 225.085 135.655,226.388 134.636,227.752 133.584 C 229.116 132.532,230.302 131.586,230.388 131.481 C 230.473 131.376,231.781 130.250,233.294 128.979 C 239.201 124.013,242.499 122.042,249.588 119.237 C 250.684 118.804,251.767 118.450,251.996 118.450 C 252.224 118.450,252.654 118.322,252.950 118.167 C 253.246 118.011,254.605 117.535,255.969 117.109 C 257.333 116.682,258.171 116.336,257.829 116.339 C 257.488 116.342,256.860 116.469,256.434 116.619 M276.899 116.542 C 276.244 116.678,278.639 116.852,282.946 116.980 C 287.165 117.106,291.090 117.388,292.558 117.670 C 294.842 118.109,295.701 118.289,298.527 118.922 C 299.081 119.046,299.535 119.071,299.535 118.978 C 299.535 118.796,296.004 117.913,293.488 117.467 C 289.502 116.759,278.744 116.159,276.899 116.542 M270.078 117.231 C 269.481 117.371,267.806 117.653,266.357 117.859 C 262.221 118.445,254.759 120.407,250.543 122.016 C 244.338 124.384,240.460 126.670,235.814 130.698 C 215.925 147.940,199.295 152.675,178.605 146.987 C 177.326 146.636,175.930 146.270,175.504 146.175 C 174.706 145.997,168.692 146.851,168.387 147.185 C 168.219 147.370,168.617 147.324,172.857 146.672 C 174.614 146.402,175.306 146.428,176.578 146.812 C 197.563 153.148,213.929 149.144,233.812 132.808 C 238.827 128.688,243.893 124.961,244.478 124.961 C 244.549 124.961,245.490 124.554,246.568 124.055 C 253.800 120.712,265.644 117.769,274.574 117.097 C 275.256 117.045,274.767 116.998,273.488 116.991 C 272.209 116.983,270.674 117.092,270.078 117.231 M179.225 119.679 C 178.116 119.977,176.302 120.438,175.194 120.704 C 174.085 120.971,173.541 121.200,173.985 121.214 C 174.428 121.229,175.196 121.115,175.690 120.962 C 176.185 120.809,177.644 120.450,178.932 120.165 C 181.165 119.670,182.821 119.039,181.705 119.108 C 181.450 119.124,180.333 119.381,179.225 119.679 M162.171 144.806 C 161.086 145.153,162.821 145.153,164.186 144.806 L 165.116 144.569 164.031 144.564 C 163.434 144.561,162.597 144.670,162.171 144.806 M159.009 145.281 C 158.918 145.371,158.023 145.588,157.019 145.762 C 152.707 146.512,152.365 146.592,153.315 146.630 C 154.224 146.667,156.464 146.289,159.690 145.556 C 161.216 145.209,161.278 145.165,160.284 145.142 C 159.673 145.128,159.099 145.190,159.009 145.281 M149.922 146.977 L 148.992 147.213 150.078 147.228 C 150.674 147.237,151.442 147.123,151.783 146.977 C 152.608 146.622,151.315 146.622,149.922 146.977 M146.667 147.597 L 145.891 147.845 146.667 147.845 C 147.093 147.845,147.791 147.733,148.217 147.597 L 148.992 147.349 148.217 147.349 C 147.791 147.349,147.093 147.460,146.667 147.597 M165.271 147.603 C 164.674 147.741,163.209 148.015,162.016 148.211 C 157.839 148.897,155.511 149.399,156.374 149.428 C 156.853 149.444,157.830 149.329,158.545 149.171 C 159.260 149.014,160.891 148.715,162.171 148.506 C 165.841 147.909,168.316 147.349,167.287 147.350 C 166.775 147.351,165.868 147.464,165.271 147.603 M143.173 148.093 C 143.070 148.196,142.175 148.393,141.183 148.531 C 138.268 148.938,133.511 149.796,133.365 149.942 C 133.110 150.198,134.423 150.065,136.899 149.584 C 138.264 149.319,140.147 148.979,141.085 148.829 C 142.023 148.679,143.488 148.426,144.341 148.268 L 145.891 147.980 144.625 147.943 C 143.929 147.923,143.275 147.991,143.173 148.093 M151.783 149.955 C 150.589 150.182,148.775 150.505,147.752 150.672 C 141.887 151.630,140.011 151.980,139.859 152.147 C 139.631 152.398,141.914 152.055,150.536 150.543 C 154.920 149.774,156.396 149.405,154.703 149.499 C 154.291 149.522,152.977 149.727,151.783 149.955 M130.078 150.397 C 129.566 150.539,128.101 150.817,126.822 151.017 C 123.034 151.609,120.404 152.181,121.313 152.216 C 121.780 152.234,122.757 152.114,123.484 151.949 C 124.211 151.785,125.853 151.486,127.132 151.284 C 131.064 150.665,133.343 150.140,132.093 150.140 C 131.496 150.141,130.589 150.256,130.078 150.397 M104.070 151.401 C 103.332 151.947,103.317 153.393,104.043 153.924 C 104.648 154.366,110.995 155.189,112.248 154.987 C 112.674 154.919,111.086 154.658,108.718 154.408 C 103.888 153.898,103.034 153.456,104.055 151.997 C 104.523 151.330,104.649 151.316,108.470 151.512 C 110.633 151.623,112.333 151.642,112.248 151.554 C 111.824 151.117,104.634 150.982,104.070 151.401 M113.333 151.927 C 114.259 152.173,118.360 152.351,118.114 152.134 C 118.043 152.072,116.729 151.944,115.194 151.850 C 113.570 151.750,112.792 151.782,113.333 151.927 M118.837 152.462 C 119.136 152.540,119.624 152.540,119.922 152.462 C 120.221 152.384,119.977 152.320,119.380 152.320 C 118.783 152.320,118.539 152.384,118.837 152.462 M137.320 152.396 C 137.186 152.530,136.404 152.672,131.318 153.483 C 127.414 154.106,123.892 154.764,123.761 154.895 C 123.515 155.141,124.843 155.053,126.565 154.708 C 129.246 154.172,131.083 153.845,135.349 153.140 C 139.632 152.434,140.299 152.248,138.553 152.248 C 137.956 152.248,137.401 152.315,137.320 152.396 M115.194 155.372 C 117.500 155.644,121.395 155.652,122.635 155.387 C 123.147 155.277,121.263 155.180,118.449 155.170 C 114.981 155.158,113.932 155.223,115.194 155.372 M130.853 174.313 C 126.407 175.525,124.646 176.467,121.983 179.056 C 115.197 185.654,115.181 195.657,121.946 202.303 C 124.874 205.181,129.874 207.651,131.542 207.045 C 131.760 206.966,131.380 206.805,130.698 206.687 C 120.244 204.878,114.268 193.146,118.961 183.647 C 122.002 177.493,129.866 173.246,135.763 174.572 C 141.170 175.788,143.771 177.372,142.934 178.937 C 142.507 179.735,142.122 179.696,139.802 178.618 C 125.932 172.170,113.250 189.236,123.884 200.040 C 127.185 203.395,133.129 205.345,135.969 204.005 C 136.404 203.799,136.102 203.763,134.952 203.884 C 127.318 204.682,120.484 198.606,120.470 191.008 C 120.452 180.629,130.760 174.422,140.200 179.127 C 141.938 179.993,142.384 180.017,143.053 179.278 C 145.360 176.729,135.984 172.913,130.853 174.313 M221.972 174.546 L 221.240 175.139 221.154 190.204 C 221.063 206.173,221.140 207.132,222.523 207.132 C 222.907 207.132,222.870 207.013,222.353 206.589 C 221.694 206.049,221.691 205.983,221.684 190.838 C 221.677 175.310,221.706 174.759,222.549 174.435 C 224.145 173.823,224.186 174.196,224.186 189.443 C 224.186 204.803,224.132 204.341,225.943 204.341 C 227.862 204.341,228.023 206.622,226.124 206.910 C 225.322 207.031,225.330 207.042,226.268 207.085 C 228.076 207.170,228.473 204.536,226.710 204.162 C 226.260 204.066,225.585 203.865,225.211 203.714 L 224.530 203.440 224.521 189.239 C 224.513 175.114,224.510 175.036,223.850 174.496 C 223.017 173.815,222.871 173.818,221.972 174.546 M180.775 175.496 C 180.416 175.723,180.275 176.691,180.155 179.755 L 180.000 183.721 178.452 183.819 C 174.907 184.042,174.697 186.970,178.203 187.282 L 180.000 187.442 180.155 195.039 C 180.322 203.221,180.340 203.312,182.130 205.220 C 183.422 206.597,184.528 207.140,185.954 207.095 C 187.059 207.060,187.032 207.040,185.505 206.761 C 181.369 206.007,180.465 203.778,180.465 194.338 C 180.465 186.616,180.566 186.977,178.404 186.977 C 175.025 186.977,175.203 184.505,178.605 184.189 L 180.310 184.031 180.465 180.092 C 180.632 175.848,180.840 175.297,182.148 175.626 L 182.946 175.826 182.946 179.634 C 182.946 184.157,182.964 184.186,185.776 184.186 C 187.994 184.186,188.837 184.616,188.837 185.748 C 188.837 186.609,187.888 186.977,185.664 186.977 C 182.851 186.977,182.946 186.723,182.946 194.288 C 182.946 202.992,183.370 203.985,187.241 204.341 C 189.811 204.577,190.366 206.352,188.029 206.863 L 187.132 207.058 188.078 207.095 C 191.168 207.215,190.175 204.262,187.005 203.904 C 183.724 203.533,183.505 202.969,183.325 194.459 C 183.165 186.855,182.994 187.299,186.076 187.292 C 188.275 187.286,189.147 186.785,189.147 185.528 C 189.147 184.379,188.183 183.876,185.983 183.876 C 183.365 183.876,183.321 183.806,183.281 179.535 C 183.241 175.404,182.589 174.353,180.775 175.496 M280.024 175.770 C 279.854 176.087,279.697 177.796,279.674 179.568 C 279.619 183.946,279.649 183.876,277.809 183.876 C 274.130 183.876,274.052 186.954,277.722 187.281 L 279.535 187.442 279.562 194.264 C 279.577 198.016,279.685 201.592,279.802 202.211 C 280.241 204.537,283.049 207.170,285.026 207.110 C 285.469 207.097,285.199 206.923,284.310 206.649 C 280.663 205.526,280.176 204.215,280.057 195.200 C 279.947 186.891,279.970 186.977,277.814 186.977 C 275.675 186.977,274.920 186.176,275.832 184.875 C 276.215 184.328,276.617 184.186,277.785 184.186 C 279.896 184.186,280.000 183.981,280.000 179.845 C 280.000 176.148,280.191 175.504,281.284 175.504 C 282.167 175.504,282.318 176.090,282.481 180.155 L 282.636 184.031 285.080 184.186 C 289.321 184.455,289.516 186.977,285.297 186.977 C 282.263 186.977,282.481 186.412,282.481 194.277 C 282.481 203.444,282.882 204.341,286.986 204.341 C 288.931 204.341,289.670 206.248,287.988 206.925 C 287.728 207.030,287.762 207.091,288.087 207.107 C 288.357 207.121,288.761 206.789,288.985 206.371 C 289.464 205.476,288.767 204.055,287.822 204.000 C 282.907 203.711,282.791 203.486,282.791 194.307 C 282.791 186.758,282.579 187.287,285.607 187.287 C 290.074 187.287,289.754 183.967,285.271 183.805 L 282.946 183.721 282.791 179.755 C 282.626 175.553,282.493 175.209,281.019 175.199 C 280.641 175.196,280.193 175.453,280.024 175.770 M157.458 183.731 C 148.255 186.250,145.161 197.294,151.844 203.768 C 153.569 205.438,155.901 206.711,157.674 206.950 L 158.915 207.117 157.829 206.796 C 154.232 205.731,151.056 203.188,149.686 200.276 C 146.118 192.691,151.274 184.399,159.845 183.938 C 161.657 183.841,162.418 183.703,162.016 183.544 C 161.119 183.190,159.137 183.272,157.458 183.731 M202.171 183.680 C 193.119 185.956,189.713 196.617,195.864 203.425 C 196.867 204.536,199.846 206.516,200.503 206.509 C 200.653 206.507,200.078 206.106,199.225 205.616 C 195.430 203.439,193.443 200.181,193.245 195.814 C 192.685 183.409,209.456 179.166,214.952 190.322 L 215.969 192.387 215.969 199.337 C 215.969 205.619,215.917 206.320,215.426 206.630 C 214.642 207.126,213.820 206.511,213.703 205.341 C 213.537 203.681,213.042 203.624,210.775 205.005 C 209.640 205.696,207.972 206.442,207.069 206.662 C 205.930 206.940,205.687 207.074,206.276 207.097 C 207.420 207.144,210.022 206.125,211.351 205.112 C 212.622 204.142,213.333 204.285,213.333 205.510 C 213.333 206.973,215.059 207.763,216.062 206.760 C 216.673 206.149,216.571 193.604,215.941 191.746 C 213.933 185.833,207.829 182.258,202.171 183.680 M260.155 183.684 C 255.511 184.862,251.989 188.726,252.599 191.974 C 253.125 194.773,254.342 195.403,263.331 197.532 C 268.423 198.737,268.217 198.640,268.217 199.846 C 268.217 201.794,265.131 203.827,262.171 203.830 C 259.797 203.831,258.375 203.157,256.265 201.030 C 254.452 199.203,254.384 199.175,253.402 199.863 C 251.151 201.440,256.608 207.252,260.199 207.101 C 260.698 207.080,260.487 206.934,259.535 206.640 C 255.462 205.382,251.369 200.877,253.643 200.155 C 254.550 199.867,255.272 200.191,255.936 201.185 C 257.544 203.594,261.459 204.917,264.217 203.985 C 268.494 202.540,270.170 198.554,266.747 197.970 C 266.106 197.860,265.163 197.647,264.651 197.496 C 264.140 197.345,262.047 196.812,260.000 196.313 C 254.069 194.864,253.023 194.097,253.023 191.196 C 253.023 186.161,260.099 182.486,266.088 184.410 C 268.183 185.083,271.318 187.956,271.318 189.202 C 271.318 191.072,269.794 191.064,268.285 189.185 C 267.230 187.873,265.320 186.849,263.411 186.572 L 262.171 186.392 263.256 186.714 C 265.601 187.410,266.712 188.057,268.044 189.502 C 270.221 191.866,272.780 191.095,271.458 188.473 C 269.595 184.778,264.444 182.595,260.155 183.684 M163.721 184.297 C 167.406 185.636,170.330 188.835,171.341 192.631 C 171.997 195.096,171.962 205.668,171.296 206.334 C 170.418 207.212,169.302 206.702,169.302 205.424 C 169.302 203.676,168.578 203.504,166.692 204.803 C 165.651 205.520,164.093 206.230,162.857 206.553 C 161.474 206.914,161.087 207.100,161.705 207.107 C 162.804 207.119,165.704 205.978,167.099 204.985 C 168.293 204.135,168.992 204.328,168.992 205.510 C 168.992 207.106,170.538 207.716,171.602 206.540 C 172.492 205.557,172.194 193.399,171.221 190.961 C 170.000 187.904,165.469 183.847,163.322 183.890 C 162.808 183.900,162.908 184.002,163.721 184.297 M231.173 184.485 C 230.348 185.397,230.159 184.855,237.088 201.429 C 238.422 204.618,238.430 204.488,236.589 209.178 C 234.681 214.038,234.632 215.194,236.334 215.194 C 237.159 215.194,237.706 214.159,240.314 207.652 C 241.626 204.381,242.977 201.078,243.318 200.310 C 246.740 192.604,249.361 185.075,248.828 184.486 C 247.606 183.135,247.017 183.816,244.783 189.165 C 243.825 191.457,242.861 193.752,242.641 194.264 C 242.421 194.775,241.855 196.136,241.384 197.287 C 240.334 199.851,239.883 199.907,238.887 197.597 C 238.464 196.616,237.988 195.535,237.828 195.194 C 237.667 194.853,237.246 193.817,236.892 192.893 C 236.537 191.969,235.982 190.632,235.659 189.922 C 235.336 189.213,234.774 187.876,234.412 186.952 C 233.314 184.155,232.223 183.325,231.173 184.485 M232.536 184.484 C 232.842 184.648,233.277 185.241,233.500 185.802 C 233.724 186.363,234.279 187.659,234.734 188.682 C 235.188 189.705,236.439 192.678,237.514 195.287 C 239.908 201.097,240.217 201.248,241.763 197.364 C 243.000 194.257,243.689 192.579,244.054 191.783 C 244.210 191.442,244.862 189.899,245.503 188.353 C 247.006 184.730,247.480 184.015,248.201 184.292 C 248.881 184.553,248.700 186.254,247.773 188.312 C 247.451 189.027,246.210 192.054,245.015 195.039 C 241.986 202.605,240.078 207.298,239.200 209.341 C 238.787 210.300,238.450 211.168,238.450 211.270 C 238.450 212.148,236.792 214.884,236.260 214.884 C 234.913 214.884,235.062 213.993,237.422 207.934 L 238.741 204.550 236.596 199.220 C 235.417 196.289,234.081 193.068,233.629 192.062 C 232.828 190.281,231.435 186.754,231.101 185.657 C 230.801 184.675,231.628 183.999,232.536 184.484 M158.295 186.660 C 150.850 188.014,148.690 197.871,154.824 202.498 C 162.167 208.037,172.012 200.025,168.268 191.559 C 167.170 189.076,163.983 186.624,161.950 186.698 L 161.085 186.730 162.016 186.955 C 172.006 189.372,170.262 203.972,160.000 203.829 C 152.096 203.718,148.616 194.146,154.574 188.902 C 155.978 187.665,156.567 187.406,159.535 186.711 C 160.992 186.370,160.092 186.333,158.295 186.660 M200.620 187.269 C 193.961 190.800,194.059 200.060,200.792 203.395 C 209.914 207.914,218.139 195.582,210.567 188.741 C 209.147 187.458,207.439 186.652,206.241 186.698 C 205.445 186.729,205.447 186.736,206.357 186.969 C 216.392 189.549,214.942 203.894,204.651 203.836 C 194.486 203.779,192.762 189.343,202.636 186.955 L 203.566 186.730 202.636 186.712 C 202.124 186.702,201.217 186.953,200.620 187.269 M258.869 187.292 C 255.018 189.326,254.661 192.076,258.144 192.877 C 258.994 193.072,260.118 193.360,260.642 193.515 C 261.166 193.671,261.864 193.789,262.193 193.777 C 262.824 193.754,261.140 193.228,258.295 192.560 C 255.680 191.946,255.456 191.098,257.361 189.031 C 258.163 188.161,259.118 187.516,260.074 187.197 C 261.104 186.854,261.316 186.703,260.775 186.700 C 260.349 186.697,259.491 186.963,258.869 187.292 M264.186 194.271 C 266.796 195.161,267.485 195.349,268.138 195.349 C 268.950 195.349,270.571 196.685,271.174 197.851 C 272.782 200.961,269.270 205.435,264.269 206.647 C 263.151 206.918,262.796 207.090,263.322 207.106 C 265.747 207.180,269.752 204.631,271.140 202.129 C 272.843 199.060,271.455 195.869,268.038 194.998 C 267.369 194.827,266.333 194.563,265.736 194.412 C 263.621 193.875,262.806 193.801,264.186 194.271 M140.259 202.151 C 139.719 202.480,138.672 202.962,137.933 203.220 C 137.194 203.479,136.830 203.698,137.124 203.706 C 137.418 203.714,138.573 203.302,139.690 202.791 C 142.084 201.694,142.503 201.654,142.946 202.481 C 143.448 203.419,142.870 204.187,141.010 205.050 C 140.113 205.466,139.031 205.968,138.605 206.166 C 137.848 206.516,137.852 206.520,138.760 206.339 C 140.962 205.900,143.566 204.141,143.566 203.091 C 143.566 201.686,141.830 201.193,140.259 202.151 M135.504 206.822 L 134.419 207.050 135.504 207.069 C 136.101 207.080,136.868 206.968,137.209 206.822 L 137.829 206.555 137.209 206.574 C 136.868 206.585,136.101 206.696,135.504 206.822 M201.395 206.822 C 201.736 206.968,202.434 207.081,202.946 207.073 L 203.876 207.058 202.946 206.822 C 202.434 206.692,201.736 206.578,201.395 206.570 L 200.775 206.555 201.395 206.822 " stroke="none" fill="#d0bcf4" fill-rule="evenodd"></path><path id="path3" d="M167.752 83.876 C 168.330 84.473,168.874 84.961,168.959 84.961 C 169.044 84.961,168.641 84.473,168.062 83.876 C 167.483 83.279,166.940 82.791,166.855 82.791 C 166.770 82.791,167.173 83.279,167.752 83.876 M216.255 94.574 C 216.255 98.070,216.300 99.500,216.355 97.752 C 216.411 96.004,216.411 93.143,216.355 91.395 C 216.300 89.647,216.255 91.078,216.255 94.574 M212.534 95.039 C 212.535 98.620,212.580 100.043,212.635 98.200 C 212.690 96.358,212.689 93.427,212.634 91.689 C 212.579 89.950,212.534 91.457,212.534 95.039 M255.740 106.886 C 256.126 106.960,256.684 106.957,256.980 106.880 C 257.277 106.802,256.961 106.741,256.279 106.745 C 255.597 106.748,255.354 106.812,255.740 106.886 M196.351 108.837 C 196.351 109.434,196.415 109.678,196.493 109.380 C 196.571 109.081,196.571 108.593,196.493 108.295 C 196.415 107.996,196.351 108.240,196.351 108.837 M228.443 111.542 C 228.993 111.610,229.970 111.611,230.613 111.544 C 231.257 111.477,230.806 111.421,229.612 111.420 C 228.419 111.418,227.892 111.473,228.443 111.542 M229.683 115.263 C 230.233 115.331,231.210 115.332,231.854 115.265 C 232.497 115.198,232.047 115.142,230.853 115.141 C 229.659 115.139,229.133 115.194,229.683 115.263 M276.047 117.113 C 276.345 117.191,276.833 117.191,277.132 117.113 C 277.430 117.035,277.186 116.971,276.589 116.971 C 275.992 116.971,275.748 117.035,276.047 117.113 M285.039 117.113 C 285.337 117.191,285.826 117.191,286.124 117.113 C 286.422 117.035,286.178 116.971,285.581 116.971 C 284.984 116.971,284.740 117.035,285.039 117.113 M151.715 122.709 C 152.530 122.773,153.786 122.772,154.505 122.707 C 155.225 122.642,154.558 122.590,153.023 122.591 C 151.488 122.592,150.900 122.645,151.715 122.709 M153.566 126.431 C 154.717 126.491,156.601 126.491,157.752 126.431 C 158.903 126.372,157.961 126.323,155.659 126.323 C 153.357 126.323,152.415 126.372,153.566 126.431 M192.171 145.961 C 192.725 146.030,193.632 146.030,194.186 145.961 C 194.740 145.892,194.287 145.836,193.178 145.836 C 192.070 145.836,191.616 145.892,192.171 145.961 M196.357 145.950 C 196.655 146.028,197.143 146.028,197.442 145.950 C 197.740 145.872,197.496 145.808,196.899 145.808 C 196.302 145.808,196.058 145.872,196.357 145.950 M192.636 149.683 C 193.275 149.750,194.322 149.750,194.961 149.683 C 195.601 149.616,195.078 149.562,193.798 149.562 C 192.519 149.562,191.996 149.616,192.636 149.683 M105.352 150.917 C 105.738 150.991,106.296 150.988,106.593 150.911 C 106.889 150.833,106.574 150.772,105.891 150.776 C 105.209 150.779,104.967 150.843,105.352 150.917 M118.682 152.157 C 119.066 152.231,119.694 152.231,120.078 152.157 C 120.461 152.083,120.147 152.022,119.380 152.022 C 118.612 152.022,118.298 152.083,118.682 152.157 M118.682 155.878 C 119.066 155.952,119.694 155.952,120.078 155.878 C 120.461 155.804,120.147 155.743,119.380 155.743 C 118.612 155.743,118.298 155.804,118.682 155.878 M224.609 178.140 C 224.610 179.845,224.662 180.503,224.725 179.602 C 224.788 178.701,224.787 177.306,224.724 176.501 C 224.660 175.697,224.609 176.434,224.609 178.140 M183.364 178.915 C 183.364 180.364,183.418 180.957,183.483 180.233 C 183.548 179.508,183.548 178.322,183.483 177.597 C 183.418 176.872,183.364 177.465,183.364 178.915 M279.486 178.760 C 279.487 180.124,279.542 180.644,279.607 179.914 C 279.673 179.185,279.672 178.069,279.605 177.434 C 279.539 176.799,279.485 177.395,279.486 178.760 M282.869 181.240 C 282.872 181.922,282.936 182.165,283.010 181.779 C 283.084 181.394,283.081 180.835,283.004 180.539 C 282.926 180.243,282.865 180.558,282.869 181.240 M123.861 181.783 L 122.636 183.101 123.953 181.875 C 125.179 180.735,125.414 180.465,125.179 180.465 C 125.129 180.465,124.536 181.058,123.861 181.783 M224.633 190.388 C 224.633 195.248,224.676 197.236,224.728 194.806 C 224.780 192.376,224.780 188.399,224.728 185.969 C 224.676 183.539,224.633 185.527,224.633 190.388 M167.442 185.833 C 167.442 185.887,167.895 186.340,168.450 186.841 L 169.457 187.752 168.547 186.744 C 167.698 185.805,167.442 185.594,167.442 185.833 M151.453 187.054 L 150.543 188.062 151.550 187.151 C 152.490 186.302,152.701 186.047,152.461 186.047 C 152.408 186.047,151.954 186.500,151.453 187.054 M159.767 186.880 C 160.066 186.958,160.554 186.958,160.853 186.880 C 161.151 186.802,160.907 186.739,160.310 186.739 C 159.713 186.739,159.469 186.802,159.767 186.880 M203.957 186.886 C 204.343 186.960,204.901 186.957,205.197 186.880 C 205.494 186.802,205.178 186.741,204.496 186.745 C 203.814 186.748,203.571 186.812,203.957 186.886 M261.783 186.880 C 262.081 186.958,262.570 186.958,262.868 186.880 C 263.167 186.802,262.922 186.739,262.326 186.739 C 261.729 186.739,261.484 186.802,261.783 186.880 M185.969 187.506 C 186.353 187.580,186.981 187.580,187.364 187.506 C 187.748 187.432,187.434 187.371,186.667 187.371 C 185.899 187.371,185.585 187.432,185.969 187.506 M278.985 187.509 C 279.254 187.701,279.393 189.399,279.461 193.347 L 279.557 198.915 279.546 193.204 C 279.537 188.397,279.461 187.473,279.070 187.366 C 278.733 187.275,278.710 187.314,278.985 187.509 M284.264 187.511 C 284.818 187.580,285.725 187.580,286.279 187.511 C 286.833 187.442,286.380 187.386,285.271 187.386 C 284.163 187.386,283.709 187.442,284.264 187.511 M183.386 193.488 C 183.386 196.814,183.431 198.174,183.487 196.512 C 183.543 194.849,183.543 192.128,183.487 190.465 C 183.431 188.802,183.386 190.163,183.386 193.488 M282.916 192.248 C 282.916 194.891,282.963 195.973,283.021 194.651 C 283.079 193.329,283.079 191.167,283.021 189.845 C 282.963 188.523,282.916 189.605,282.916 192.248 M198.585 189.225 L 197.674 190.233 198.682 189.322 C 199.236 188.821,199.690 188.367,199.690 188.314 C 199.690 188.075,199.434 188.285,198.585 189.225 M192.654 195.194 C 192.656 196.217,192.714 196.598,192.783 196.041 C 192.852 195.484,192.850 194.646,192.780 194.180 C 192.709 193.715,192.652 194.171,192.654 195.194 M213.101 195.194 C 213.105 195.876,213.168 196.119,213.243 195.733 C 213.317 195.347,213.314 194.789,213.236 194.493 C 213.159 194.196,213.098 194.512,213.101 195.194 M216.563 200.310 C 216.563 203.465,216.609 204.756,216.665 203.178 C 216.721 201.601,216.721 199.019,216.665 197.442 C 216.609 195.864,216.563 197.155,216.563 200.310 M124.018 199.767 C 125.303 201.136,125.581 201.383,125.581 201.150 C 125.581 201.100,124.919 200.437,124.109 199.677 L 122.636 198.295 124.018 199.767 M282.879 199.845 C 282.882 200.698,282.942 201.010,283.013 200.538 C 283.084 200.067,283.083 199.369,283.009 198.988 C 282.935 198.607,282.877 198.992,282.879 199.845 M224.592 201.705 C 224.594 202.729,224.652 203.110,224.721 202.553 C 224.790 201.995,224.788 201.158,224.718 200.692 C 224.647 200.226,224.590 200.682,224.592 201.705 M197.519 200.407 C 197.519 200.460,197.973 200.914,198.527 201.415 L 199.535 202.326 198.624 201.318 C 197.775 200.378,197.519 200.168,197.519 200.407 M267.112 201.628 L 266.202 202.636 267.209 201.725 C 267.764 201.224,268.217 200.771,268.217 200.717 C 268.217 200.478,267.961 200.689,267.112 201.628 M120.930 201.647 C 120.930 201.701,121.384 202.154,121.938 202.655 L 122.946 203.566 122.035 202.558 C 121.186 201.619,120.930 201.408,120.930 201.647 M253.333 203.198 C 253.333 203.251,253.787 203.705,254.341 204.206 L 255.349 205.116 254.438 204.109 C 253.589 203.169,253.333 202.958,253.333 203.198 M132.949 203.940 C 133.335 204.014,133.893 204.012,134.190 203.934 C 134.486 203.856,134.171 203.796,133.488 203.799 C 132.806 203.803,132.564 203.866,132.949 203.940 M159.767 203.935 C 160.066 204.013,160.554 204.013,160.853 203.935 C 161.151 203.857,160.907 203.793,160.310 203.793 C 159.713 203.793,159.469 203.857,159.767 203.935 M187.054 203.935 C 187.353 204.013,187.841 204.013,188.140 203.935 C 188.438 203.857,188.194 203.793,187.597 203.793 C 187.000 203.793,186.756 203.857,187.054 203.935 M204.267 203.940 C 204.653 204.014,205.211 204.012,205.507 203.934 C 205.804 203.856,205.488 203.796,204.806 203.799 C 204.124 203.803,203.881 203.866,204.267 203.940 M168.121 204.533 C 168.409 204.619,168.705 205.031,168.779 205.449 C 168.896 206.114,168.908 206.102,168.875 205.355 C 168.848 204.744,168.661 204.484,168.217 204.439 C 167.770 204.394,167.743 204.420,168.121 204.533 M211.966 204.605 C 211.862 204.773,212.040 204.836,212.374 204.749 C 212.769 204.645,213.022 204.784,213.132 205.165 C 213.276 205.663,213.290 205.657,213.234 205.120 C 213.167 204.465,212.276 204.103,211.966 204.605 M181.395 204.748 C 181.395 204.802,181.849 205.255,182.403 205.756 L 183.411 206.667 182.500 205.659 C 181.651 204.720,181.395 204.509,181.395 204.748 M132.334 207.359 C 133.063 207.425,134.179 207.424,134.814 207.357 C 135.449 207.291,134.853 207.237,133.488 207.238 C 132.124 207.239,131.604 207.294,132.334 207.359 M158.837 207.358 C 159.477 207.425,160.523 207.425,161.163 207.358 C 161.802 207.291,161.279 207.236,160.000 207.236 C 158.721 207.236,158.198 207.291,158.837 207.358 M186.124 207.354 C 186.593 207.425,187.360 207.425,187.829 207.354 C 188.298 207.283,187.915 207.225,186.977 207.225 C 186.039 207.225,185.655 207.283,186.124 207.354 M203.488 207.358 C 204.128 207.425,205.174 207.425,205.814 207.358 C 206.453 207.291,205.930 207.236,204.651 207.236 C 203.372 207.236,202.849 207.291,203.488 207.358 M223.333 207.358 C 223.973 207.425,225.019 207.425,225.659 207.358 C 226.298 207.291,225.775 207.236,224.496 207.236 C 223.217 207.236,222.694 207.291,223.333 207.358 M261.008 207.356 C 261.562 207.425,262.469 207.425,263.023 207.356 C 263.578 207.287,263.124 207.231,262.016 207.231 C 260.907 207.231,260.453 207.287,261.008 207.356 " stroke="none" fill="#dcd4f6" fill-rule="evenodd"></path><path id="path4" d="M165.491 36.998 C 165.390 37.260,165.570 37.399,165.992 37.386 C 166.478 37.370,166.703 37.607,166.854 38.295 C 167.049 39.180,167.060 39.186,167.095 38.420 C 167.147 37.272,165.833 36.107,165.491 36.998 M171.385 48.379 C 171.934 48.954,172.436 49.363,172.500 49.286 C 172.564 49.210,172.115 48.739,171.502 48.240 L 170.388 47.332 171.385 48.379 M175.039 51.291 C 175.550 51.730,176.097 52.091,176.253 52.091 C 176.590 52.093,176.586 52.090,175.194 51.192 L 174.109 50.491 175.039 51.291 M159.263 52.880 C 159.157 53.157,159.082 53.617,159.096 53.901 C 159.111 54.186,159.246 54.007,159.396 53.504 C 159.689 52.525,159.585 52.041,159.263 52.880 M178.761 53.645 C 178.968 53.981,180.775 54.988,180.775 54.767 C 180.775 54.694,180.278 54.342,179.671 53.984 C 179.064 53.625,178.654 53.473,178.761 53.645 M171.783 53.756 C 171.783 53.841,172.202 54.209,172.713 54.574 C 173.225 54.938,173.643 55.166,173.643 55.081 C 173.643 54.996,173.225 54.628,172.713 54.264 C 172.202 53.899,171.783 53.671,171.783 53.756 M158.884 59.845 C 158.884 62.488,158.932 63.570,158.990 62.248 C 159.048 60.926,159.048 58.764,158.990 57.442 C 158.932 56.120,158.884 57.202,158.884 59.845 M162.875 56.744 C 162.875 57.512,162.936 57.826,163.010 57.442 C 163.083 57.058,163.083 56.430,163.010 56.047 C 162.936 55.663,162.875 55.977,162.875 56.744 M162.863 63.256 C 162.863 63.853,162.926 64.097,163.004 63.798 C 163.082 63.500,163.082 63.012,163.004 62.713 C 162.926 62.415,162.863 62.659,162.863 63.256 M189.147 63.705 C 189.147 63.790,189.566 64.077,190.078 64.341 C 190.589 64.606,191.008 64.752,191.008 64.667 C 191.008 64.582,190.589 64.296,190.078 64.031 C 189.566 63.766,189.147 63.620,189.147 63.705 M159.113 65.736 C 159.113 65.992,159.233 66.481,159.380 66.822 C 159.548 67.213,159.646 67.270,159.646 66.977 C 159.646 66.721,159.526 66.233,159.380 65.891 C 159.212 65.501,159.113 65.443,159.113 65.736 M201.240 66.159 C 201.240 66.245,201.659 66.612,202.171 66.977 C 202.682 67.341,203.101 67.569,203.101 67.484 C 203.101 67.399,202.682 67.031,202.171 66.667 C 201.659 66.302,201.240 66.074,201.240 66.159 M163.910 68.992 C 164.165 70.132,164.343 70.380,164.336 69.587 C 164.334 69.260,164.190 68.783,164.017 68.527 C 163.787 68.187,163.758 68.313,163.910 68.992 M208.205 71.877 C 209.801 73.548,210.599 74.123,209.279 72.650 C 208.140 71.378,207.955 71.200,207.286 70.714 C 206.945 70.467,207.359 70.990,208.205 71.877 M165.603 73.643 C 165.603 73.814,165.803 74.302,166.047 74.729 C 166.290 75.155,166.490 75.364,166.490 75.194 C 166.490 75.023,166.290 74.535,166.047 74.109 C 165.803 73.682,165.603 73.473,165.603 73.643 M168.062 84.438 C 168.062 84.491,168.516 84.945,169.070 85.446 L 170.078 86.357 169.167 85.349 C 168.318 84.409,168.062 84.199,168.062 84.438 M174.264 84.493 C 174.264 84.564,174.891 85.053,175.659 85.581 C 176.426 86.109,177.050 86.430,177.044 86.294 C 177.035 86.046,174.264 84.252,174.264 84.493 M216.032 86.667 C 216.131 87.519,216.262 88.275,216.323 88.346 C 216.555 88.615,216.378 86.329,216.122 85.736 C 215.949 85.337,215.917 85.669,216.032 86.667 M211.827 85.891 C 211.827 86.147,211.946 86.636,212.093 86.977 C 212.261 87.368,212.360 87.425,212.360 87.132 C 212.360 86.876,212.240 86.388,212.093 86.047 C 211.925 85.656,211.827 85.598,211.827 85.891 M177.519 86.737 C 177.690 86.899,178.388 87.346,179.070 87.729 C 179.752 88.112,180.031 88.193,179.690 87.910 C 178.997 87.334,177.033 86.272,177.519 86.737 M186.076 92.791 C 186.149 92.833,186.765 93.357,187.445 93.953 L 188.682 95.039 187.614 93.876 C 187.026 93.236,186.410 92.713,186.244 92.713 C 186.079 92.713,186.003 92.748,186.076 92.791 M185.891 97.984 C 186.558 98.667,187.172 99.225,187.258 99.225 C 187.343 99.225,186.868 98.667,186.202 97.984 C 185.535 97.302,184.921 96.744,184.835 96.744 C 184.750 96.744,185.225 97.302,185.891 97.984 M193.810 101.550 C 193.811 101.721,194.098 102.209,194.446 102.636 C 194.867 103.151,194.973 103.203,194.760 102.791 C 194.237 101.779,193.808 101.219,193.810 101.550 M212.475 102.326 C 212.475 102.922,212.539 103.167,212.617 102.868 C 212.695 102.570,212.695 102.081,212.617 101.783 C 212.539 101.484,212.475 101.729,212.475 102.326 M189.767 102.636 C 190.132 103.147,190.500 103.566,190.585 103.566 C 190.670 103.566,190.442 103.147,190.078 102.636 C 189.713 102.124,189.345 101.705,189.260 101.705 C 189.175 101.705,189.403 102.124,189.767 102.636 M216.478 102.636 C 216.478 102.891,216.598 103.380,216.744 103.721 C 216.912 104.112,217.011 104.169,217.011 103.876 C 217.011 103.620,216.891 103.132,216.744 102.791 C 216.576 102.400,216.478 102.342,216.478 102.636 M255.581 107.199 C 256.050 107.270,256.818 107.270,257.287 107.199 C 257.756 107.128,257.372 107.070,256.434 107.070 C 255.496 107.070,255.112 107.128,255.581 107.199 M243.333 108.084 C 242.131 108.737,242.267 108.962,243.488 108.341 C 244.657 107.746,244.864 107.592,244.470 107.609 C 244.314 107.616,243.802 107.830,243.333 108.084 M236.124 110.698 C 235.334 111.037,236.149 111.037,237.209 110.698 C 237.832 110.498,237.863 110.448,237.364 110.440 C 237.023 110.435,236.465 110.551,236.124 110.698 M225.973 111.227 C 226.358 111.301,226.916 111.298,227.213 111.221 C 227.509 111.143,227.194 111.083,226.512 111.086 C 225.829 111.089,225.587 111.153,225.973 111.227 M232.486 111.232 C 233.043 111.301,233.881 111.300,234.347 111.229 C 234.813 111.159,234.357 111.102,233.333 111.104 C 232.310 111.106,231.929 111.163,232.486 111.232 M273.488 113.178 L 272.093 113.395 273.333 113.437 C 274.016 113.460,274.783 113.344,275.039 113.178 C 275.295 113.013,275.364 112.897,275.194 112.920 C 275.023 112.943,274.256 113.059,273.488 113.178 M270.155 113.702 C 270.453 113.780,270.942 113.780,271.240 113.702 C 271.539 113.624,271.295 113.560,270.698 113.560 C 270.101 113.560,269.857 113.624,270.155 113.702 M195.511 114.397 C 195.398 114.752,194.937 115.495,194.486 116.048 C 193.778 116.916,193.764 116.969,194.384 116.435 C 195.160 115.765,196.108 114.144,195.865 113.901 C 195.783 113.819,195.623 114.042,195.511 114.397 M228.062 115.403 C 229.550 115.667,232.364 115.661,233.624 115.390 C 234.125 115.282,232.799 115.191,230.678 115.188 C 228.213 115.184,227.269 115.262,228.062 115.403 M299.871 115.460 C 299.942 115.522,300.419 115.665,300.930 115.780 C 301.610 115.932,301.735 115.903,301.395 115.673 C 300.977 115.390,299.560 115.192,299.871 115.460 M279.314 117.129 C 280.387 117.190,282.061 117.189,283.035 117.128 C 284.009 117.067,283.132 117.017,281.085 117.018 C 279.039 117.018,278.242 117.068,279.314 117.129 M271.473 117.519 L 270.543 117.756 271.473 117.762 C 271.984 117.765,272.752 117.656,273.178 117.519 L 273.953 117.271 273.178 117.277 C 272.752 117.280,271.984 117.389,271.473 117.519 M289.302 117.519 C 289.729 117.656,290.426 117.768,290.853 117.768 L 291.628 117.768 290.853 117.519 C 290.426 117.383,289.729 117.271,289.302 117.271 L 288.527 117.271 289.302 117.519 M267.287 118.140 C 266.673 118.336,266.641 118.388,267.132 118.388 C 267.473 118.388,268.101 118.276,268.527 118.140 C 269.141 117.943,269.173 117.891,268.682 117.891 C 268.341 117.891,267.713 118.003,267.287 118.140 M293.798 118.140 C 294.140 118.286,294.628 118.406,294.884 118.406 C 295.177 118.406,295.120 118.308,294.729 118.140 C 294.388 117.993,293.899 117.873,293.643 117.873 C 293.350 117.873,293.408 117.972,293.798 118.140 M249.302 118.605 C 248.876 118.848,248.667 119.048,248.837 119.048 C 249.008 119.048,249.496 118.848,249.922 118.605 C 250.349 118.361,250.558 118.162,250.388 118.162 C 250.217 118.162,249.729 118.361,249.302 118.605 M262.326 119.070 C 261.687 119.274,261.660 119.323,262.171 119.344 C 262.512 119.359,263.000 119.235,263.256 119.070 C 263.799 118.719,263.422 118.719,262.326 119.070 M137.601 121.460 C 137.986 121.534,138.544 121.531,138.841 121.453 C 139.137 121.376,138.822 121.315,138.140 121.319 C 137.457 121.322,137.215 121.385,137.601 121.460 M185.271 121.717 C 184.760 121.951,184.550 122.144,184.806 122.146 C 185.062 122.147,185.620 121.949,186.047 121.705 C 187.027 121.145,186.503 121.153,185.271 121.717 M167.519 121.764 C 167.818 121.842,168.306 121.842,168.605 121.764 C 168.903 121.686,168.659 121.622,168.062 121.622 C 167.465 121.622,167.221 121.686,167.519 121.764 M143.023 122.074 C 143.322 122.152,143.810 122.152,144.109 122.074 C 144.407 121.996,144.163 121.932,143.566 121.932 C 142.969 121.932,142.725 121.996,143.023 122.074 M162.636 122.171 L 161.085 122.383 162.481 122.395 C 163.248 122.402,164.295 122.301,164.806 122.171 C 166.028 121.860,164.903 121.860,162.636 122.171 M145.194 122.384 C 145.492 122.462,145.981 122.462,146.279 122.384 C 146.578 122.306,146.333 122.242,145.736 122.242 C 145.140 122.242,144.895 122.306,145.194 122.384 M178.450 123.721 C 178.059 123.889,178.001 123.987,178.295 123.987 C 178.550 123.987,179.039 123.867,179.380 123.721 C 179.771 123.553,179.828 123.454,179.535 123.454 C 179.279 123.454,178.791 123.574,178.450 123.721 M247.132 123.876 C 246.705 124.120,246.496 124.319,246.667 124.319 C 246.837 124.319,247.326 124.120,247.752 123.876 C 248.178 123.632,248.388 123.433,248.217 123.433 C 248.047 123.433,247.558 123.632,247.132 123.876 M237.984 124.523 L 237.054 125.323 238.062 124.656 C 238.616 124.289,239.070 123.929,239.070 123.855 C 239.070 123.623,238.938 123.704,237.984 124.523 M174.109 124.651 C 173.250 124.870,173.238 124.890,173.953 124.920 C 174.380 124.937,174.938 124.816,175.194 124.651 C 175.722 124.310,175.449 124.310,174.109 124.651 M170.388 125.271 C 169.997 125.439,169.939 125.538,170.233 125.538 C 170.488 125.538,170.977 125.418,171.318 125.271 C 171.709 125.103,171.766 125.005,171.473 125.005 C 171.217 125.005,170.729 125.125,170.388 125.271 M165.736 125.891 C 164.447 126.220,165.716 126.234,167.287 125.909 C 168.330 125.694,168.379 125.653,167.597 125.654 C 167.085 125.654,166.248 125.761,165.736 125.891 M143.566 126.319 C 143.566 126.554,143.810 126.931,144.109 127.156 C 144.570 127.506,144.593 127.502,144.264 127.132 C 143.707 126.508,143.781 126.263,144.574 126.110 C 145.172 125.995,145.150 125.970,144.419 125.934 C 143.881 125.907,143.566 126.049,143.566 126.319 M148.148 126.429 C 148.877 126.494,149.993 126.494,150.628 126.427 C 151.263 126.360,150.667 126.307,149.302 126.308 C 147.938 126.309,147.418 126.363,148.148 126.429 M160.548 126.426 C 161.106 126.495,161.943 126.494,162.409 126.423 C 162.875 126.352,162.419 126.296,161.395 126.298 C 160.372 126.299,159.991 126.357,160.548 126.426 M241.395 127.004 L 240.465 127.803 241.550 127.103 C 242.943 126.204,242.946 126.201,242.610 126.203 C 242.453 126.204,241.907 126.564,241.395 127.004 M140.801 129.690 C 140.872 129.733,141.349 130.116,141.860 130.543 L 142.791 131.318 142.039 130.465 C 141.626 129.996,141.149 129.612,140.980 129.612 C 140.810 129.612,140.730 129.647,140.801 129.690 M173.333 142.605 C 172.861 142.738,173.432 142.817,174.794 142.807 C 176.023 142.798,176.791 142.696,176.499 142.580 C 175.825 142.312,174.334 142.324,173.333 142.605 M166.047 143.876 C 165.256 144.216,166.072 144.216,167.132 143.876 C 167.755 143.676,167.785 143.626,167.287 143.619 C 166.946 143.614,166.388 143.729,166.047 143.876 M216.434 144.651 C 215.667 145.062,215.149 145.405,215.284 145.412 C 215.613 145.431,217.984 144.213,217.984 144.025 C 217.984 143.819,217.997 143.814,216.434 144.651 M162.868 144.400 C 163.167 144.478,163.655 144.478,163.953 144.400 C 164.252 144.322,164.008 144.258,163.411 144.258 C 162.814 144.258,162.570 144.322,162.868 144.400 M204.341 144.510 C 204.001 144.740,204.127 144.769,204.806 144.617 C 205.946 144.362,206.194 144.184,205.401 144.191 C 205.074 144.193,204.597 144.337,204.341 144.510 M187.442 145.412 C 188.037 145.682,189.698 145.857,189.432 145.623 C 189.360 145.560,188.744 145.424,188.062 145.320 C 187.198 145.188,187.010 145.216,187.442 145.412 M150.078 146.681 C 149.738 146.911,149.863 146.939,150.543 146.788 C 151.683 146.532,151.930 146.355,151.137 146.361 C 150.810 146.364,150.333 146.508,150.078 146.681 M162.791 148.527 C 162.152 148.732,162.125 148.780,162.636 148.802 C 162.977 148.816,163.465 148.692,163.721 148.527 C 164.264 148.176,163.887 148.176,162.791 148.527 M137.519 148.837 C 136.729 149.177,137.544 149.177,138.605 148.837 C 139.228 148.638,139.258 148.587,138.760 148.580 C 138.419 148.575,137.860 148.691,137.519 148.837 M159.225 149.147 C 158.834 149.315,158.777 149.414,159.070 149.414 C 159.326 149.414,159.814 149.294,160.155 149.147 C 160.546 148.979,160.603 148.881,160.310 148.881 C 160.054 148.881,159.566 149.001,159.225 149.147 M185.271 149.147 C 185.612 149.294,186.171 149.410,186.512 149.405 C 187.010 149.397,186.980 149.347,186.357 149.147 C 185.296 148.808,184.481 148.808,185.271 149.147 M201.395 149.147 C 200.560 149.360,200.544 149.385,201.240 149.390 C 201.667 149.393,202.364 149.284,202.791 149.147 C 203.833 148.814,202.707 148.814,201.395 149.147 M189.075 149.682 C 189.633 149.751,190.470 149.750,190.936 149.679 C 191.402 149.608,190.946 149.552,189.922 149.553 C 188.899 149.555,188.518 149.613,189.075 149.682 M196.827 149.682 C 197.385 149.751,198.222 149.750,198.688 149.679 C 199.154 149.608,198.698 149.552,197.674 149.553 C 196.651 149.555,196.270 149.613,196.827 149.682 M150.388 150.698 C 149.764 150.897,149.734 150.948,150.233 150.955 C 150.574 150.960,151.132 150.844,151.473 150.698 C 152.263 150.358,151.448 150.358,150.388 150.698 M103.744 151.169 C 103.415 151.418,103.206 151.681,103.278 151.753 C 103.351 151.825,103.740 151.618,104.143 151.291 C 104.991 150.604,104.635 150.495,103.744 151.169 M107.003 150.810 C 107.074 150.871,107.760 151.004,108.527 151.106 C 109.459 151.229,109.716 151.199,109.302 151.016 C 108.710 150.754,106.733 150.576,107.003 150.810 M114.884 151.646 C 116.454 151.971,117.724 151.956,116.434 151.628 C 115.922 151.498,115.085 151.391,114.574 151.390 C 113.792 151.389,113.841 151.430,114.884 151.646 M121.395 151.628 C 120.605 151.967,121.420 151.967,122.481 151.628 C 123.104 151.428,123.134 151.378,122.636 151.371 C 122.295 151.366,121.736 151.481,121.395 151.628 M134.264 153.488 C 133.625 153.693,133.598 153.741,134.109 153.763 C 134.450 153.777,134.938 153.654,135.194 153.488 C 135.737 153.137,135.360 153.137,134.264 153.488 M130.233 154.109 C 129.609 154.308,129.579 154.359,130.078 154.366 C 130.419 154.371,130.977 154.255,131.318 154.109 C 132.108 153.769,131.293 153.769,130.233 154.109 M109.535 155.261 C 110.004 155.332,110.771 155.332,111.240 155.261 C 111.709 155.190,111.326 155.132,110.388 155.132 C 109.450 155.132,109.066 155.190,109.535 155.261 M114.884 155.660 C 116.137 155.936,118.352 156.068,118.114 155.852 C 118.043 155.788,117.008 155.657,115.814 155.561 C 114.146 155.428,113.931 155.451,114.884 155.660 M279.893 175.451 C 279.611 175.763,279.380 176.143,279.380 176.295 C 279.380 176.447,279.591 176.271,279.848 175.903 C 280.106 175.535,280.699 175.176,281.166 175.105 L 282.016 174.977 281.211 174.930 C 280.768 174.905,280.175 175.139,279.893 175.451 M125.426 175.961 C 123.806 176.959,124.197 176.968,125.937 175.973 C 126.680 175.548,127.147 175.200,126.977 175.199 C 126.806 175.198,126.109 175.541,125.426 175.961 M183.502 179.485 C 183.621 184.192,183.437 183.887,186.114 183.814 L 188.372 183.753 186.124 183.646 L 183.876 183.539 183.871 180.064 C 183.869 178.153,183.764 176.427,183.639 176.230 C 183.513 176.032,183.452 177.497,183.502 179.485 M220.919 190.698 C 220.919 198.969,220.959 202.353,221.007 198.217 C 221.056 194.081,221.056 187.314,221.007 183.178 C 220.959 179.043,220.919 182.426,220.919 190.698 M282.892 178.140 C 282.894 179.333,282.950 179.784,283.017 179.140 C 283.084 178.497,283.083 177.520,283.014 176.970 C 282.946 176.419,282.891 176.946,282.892 178.140 M179.963 180.000 C 179.964 182.047,180.014 182.843,180.075 181.771 C 180.136 180.698,180.135 179.024,180.074 178.050 C 180.012 177.076,179.963 177.953,179.963 180.000 M143.178 177.054 C 143.391 177.293,143.566 177.851,143.566 178.295 C 143.566 178.738,143.391 179.296,143.178 179.535 C 142.849 179.905,142.872 179.909,143.333 179.559 C 143.632 179.334,143.876 178.764,143.876 178.295 C 143.876 177.825,143.632 177.256,143.333 177.030 C 142.872 176.680,142.849 176.684,143.178 177.054 M124.330 181.628 L 122.636 183.411 124.419 181.716 C 126.075 180.141,126.344 179.845,126.113 179.845 C 126.065 179.845,125.263 180.647,124.330 181.628 M159.308 183.170 C 159.865 183.239,160.702 183.238,161.168 183.167 C 161.634 183.097,161.178 183.040,160.155 183.042 C 159.132 183.044,158.751 183.101,159.308 183.170 M203.798 183.168 C 204.267 183.239,205.035 183.239,205.504 183.168 C 205.973 183.097,205.589 183.039,204.651 183.039 C 203.713 183.039,203.329 183.097,203.798 183.168 M261.787 183.168 C 262.259 183.240,262.956 183.238,263.338 183.164 C 263.719 183.090,263.333 183.032,262.481 183.034 C 261.628 183.037,261.316 183.097,261.787 183.168 M283.379 183.659 C 283.516 183.796,284.522 183.864,285.613 183.811 L 287.597 183.714 285.363 183.562 C 284.134 183.479,283.241 183.523,283.379 183.659 M177.446 183.788 C 177.917 183.860,178.615 183.858,178.997 183.784 C 179.378 183.711,178.992 183.652,178.140 183.655 C 177.287 183.657,176.975 183.717,177.446 183.788 M276.977 183.788 C 277.446 183.859,278.213 183.859,278.682 183.788 C 279.151 183.717,278.767 183.659,277.829 183.659 C 276.891 183.659,276.508 183.717,276.977 183.788 M288.140 184.366 C 288.910 185.281,288.812 186.209,287.865 186.954 C 287.416 187.308,287.182 187.597,287.346 187.597 C 288.678 187.597,289.365 185.218,288.295 184.312 C 287.598 183.722,287.597 183.722,288.140 184.366 M175.372 185.323 C 175.263 185.607,175.300 185.967,175.455 186.122 C 175.624 186.290,175.736 186.083,175.736 185.605 C 175.736 184.675,175.647 184.606,175.372 185.323 M249.249 185.426 C 249.152 185.853,248.975 186.481,248.857 186.822 C 248.739 187.163,248.870 187.050,249.147 186.571 C 249.424 186.092,249.600 185.464,249.539 185.176 C 249.459 184.802,249.376 184.873,249.249 185.426 M211.163 185.176 C 213.146 187.021,214.319 187.932,213.333 186.863 C 212.736 186.215,211.969 185.539,211.628 185.359 C 211.287 185.179,211.078 185.097,211.163 185.176 M269.922 186.357 C 270.589 187.039,271.203 187.597,271.289 187.597 C 271.374 187.597,270.899 187.039,270.233 186.357 C 269.566 185.674,268.952 185.116,268.866 185.116 C 268.781 185.116,269.256 185.674,269.922 186.357 M195.891 186.844 C 195.252 187.450,194.729 188.035,194.729 188.144 C 194.729 188.254,195.287 187.798,195.969 187.132 C 197.104 186.024,197.348 185.732,197.132 185.739 C 197.089 185.741,196.531 186.238,195.891 186.844 M188.616 186.884 C 188.238 187.276,188.042 187.597,188.180 187.597 C 188.482 187.597,189.611 186.391,189.430 186.261 C 189.360 186.211,188.993 186.491,188.616 186.884 M277.287 187.501 C 277.585 187.579,278.074 187.579,278.372 187.501 C 278.671 187.423,278.426 187.359,277.829 187.359 C 277.233 187.359,276.988 187.423,277.287 187.501 M179.978 194.574 C 179.978 198.496,180.023 200.058,180.077 198.045 C 180.131 196.031,180.131 192.822,180.076 190.913 C 180.022 189.004,179.978 190.651,179.978 194.574 M183.698 194.419 C 183.698 198.256,183.743 199.826,183.797 197.907 C 183.852 195.988,183.852 192.849,183.797 190.930 C 183.743 189.012,183.698 190.581,183.698 194.419 M208.491 187.980 C 208.812 188.196,209.510 188.716,210.042 189.136 C 210.975 189.875,210.987 189.876,210.388 189.182 C 210.048 188.787,209.350 188.267,208.838 188.026 C 208.288 187.767,208.146 187.749,208.491 187.980 M116.701 190.698 C 116.701 192.318,116.753 192.981,116.817 192.171 C 116.881 191.360,116.881 190.035,116.817 189.225 C 116.753 188.415,116.701 189.078,116.701 190.698 M244.391 189.006 C 243.872 190.146,243.971 190.389,244.533 189.352 C 244.795 188.868,244.952 188.414,244.881 188.343 C 244.810 188.272,244.590 188.570,244.391 189.006 M154.065 189.380 C 153.173 190.457,152.795 191.008,152.948 191.008 C 153.034 191.008,153.477 190.519,153.932 189.922 C 154.777 188.815,154.880 188.397,154.065 189.380 M252.165 191.008 C 252.165 191.605,252.229 191.849,252.307 191.550 C 252.385 191.252,252.385 190.764,252.307 190.465 C 252.229 190.167,252.165 190.411,252.165 191.008 M268.653 190.620 C 269.055 191.095,269.550 191.303,270.203 191.271 L 271.163 191.225 270.233 191.090 C 269.721 191.016,269.023 190.723,268.682 190.439 C 268.067 189.927,268.067 189.928,268.653 190.620 M212.456 192.558 C 212.472 193.364,212.960 194.687,212.971 193.953 C 212.976 193.612,212.860 193.054,212.713 192.713 C 212.550 192.333,212.450 192.273,212.456 192.558 M258.010 192.359 C 258.081 192.421,258.558 192.565,259.070 192.679 C 259.749 192.831,259.875 192.802,259.535 192.572 C 259.116 192.289,257.699 192.091,258.010 192.359 M168.296 194.574 C 168.383 195.767,168.505 196.802,168.568 196.873 C 168.796 197.132,168.632 193.626,168.388 193.023 C 168.244 192.668,168.205 193.332,168.296 194.574 M151.821 193.345 C 151.715 193.622,151.640 194.082,151.655 194.366 C 151.669 194.651,151.804 194.472,151.954 193.969 C 152.247 192.990,152.143 192.506,151.821 193.345 M196.111 194.554 C 195.997 195.311,196.030 196.306,196.183 196.766 C 196.400 197.416,196.461 197.111,196.461 195.390 C 196.461 192.820,196.395 192.661,196.111 194.554 M216.698 199.456 L 216.807 205.857 216.015 206.649 C 215.264 207.399,215.257 207.701,216.000 207.205 C 216.889 206.611,217.053 205.488,217.018 200.253 C 216.997 197.300,216.893 194.472,216.785 193.969 C 216.677 193.466,216.638 195.935,216.698 199.456 M233.511 193.488 C 233.510 193.935,234.385 195.710,234.408 195.307 C 234.414 195.199,234.215 194.640,233.966 194.067 C 233.716 193.493,233.512 193.233,233.511 193.488 M252.713 193.379 C 252.713 193.546,253.167 194.092,253.721 194.593 L 254.729 195.504 253.798 194.420 C 253.287 193.824,252.833 193.278,252.791 193.206 C 252.748 193.134,252.713 193.212,252.713 193.379 M172.212 200.000 C 172.210 204.751,172.254 205.495,172.384 202.946 C 172.480 201.070,172.481 198.209,172.386 196.589 C 172.273 194.646,172.213 195.807,172.212 200.000 M192.333 195.039 C 192.333 195.806,192.393 196.120,192.467 195.736 C 192.541 195.353,192.541 194.725,192.467 194.341 C 192.393 193.957,192.333 194.271,192.333 195.039 M121.262 195.194 C 121.262 195.364,121.462 195.853,121.705 196.279 C 121.949 196.705,122.149 196.915,122.149 196.744 C 122.149 196.574,121.949 196.085,121.705 195.659 C 121.462 195.233,121.262 195.023,121.262 195.194 M269.457 195.136 C 269.457 195.189,269.911 195.643,270.465 196.144 L 271.473 197.054 270.562 196.047 C 269.713 195.107,269.457 194.896,269.457 195.136 M151.671 196.589 C 151.671 196.845,151.791 197.333,151.938 197.674 C 152.106 198.065,152.204 198.123,152.204 197.829 C 152.204 197.574,152.085 197.085,151.938 196.744 C 151.770 196.353,151.671 196.296,151.671 196.589 M260.465 197.195 C 260.721 197.368,261.198 197.512,261.525 197.515 C 262.318 197.521,262.070 197.343,260.930 197.088 C 260.251 196.937,260.125 196.965,260.465 197.195 M272.016 199.535 C 272.020 200.217,272.083 200.460,272.157 200.074 C 272.231 199.688,272.229 199.130,272.151 198.834 C 272.073 198.537,272.013 198.853,272.016 199.535 M267.589 198.964 C 268.240 199.287,267.871 200.477,266.744 201.692 L 265.581 202.946 266.912 201.707 C 268.247 200.465,268.619 199.073,267.667 198.884 C 267.449 198.841,267.414 198.877,267.589 198.964 M256.489 201.085 C 257.362 202.023,258.134 202.791,258.205 202.791 C 258.433 202.791,255.357 199.388,255.125 199.384 C 255.002 199.382,255.616 200.147,256.489 201.085 M153.112 200.159 C 153.287 200.502,153.758 201.059,154.157 201.397 C 154.858 201.989,154.857 201.978,154.113 201.083 C 152.878 199.596,152.774 199.500,153.112 200.159 M210.310 201.165 C 209.585 201.951,208.992 202.665,208.992 202.753 C 208.992 203.018,211.192 200.816,211.509 200.233 C 211.934 199.452,211.784 199.569,210.310 201.165 M119.908 200.765 C 120.214 201.186,120.594 201.535,120.752 201.541 C 120.909 201.546,120.711 201.202,120.310 200.775 C 119.380 199.786,119.192 199.781,119.908 200.765 M236.301 200.465 C 236.301 200.636,236.500 201.124,236.744 201.550 C 236.988 201.977,237.187 202.186,237.187 202.016 C 237.187 201.845,236.988 201.357,236.744 200.930 C 236.500 200.504,236.301 200.295,236.301 200.465 M252.475 201.240 C 252.475 201.837,252.539 202.081,252.617 201.783 C 252.695 201.484,252.695 200.996,252.617 200.698 C 252.539 200.399,252.475 200.643,252.475 201.240 M142.007 201.514 C 142.730 201.642,143.213 201.961,143.476 202.481 C 143.720 202.964,143.869 203.070,143.871 202.761 C 143.878 201.993,142.837 201.236,141.836 201.281 C 140.976 201.320,140.984 201.332,142.007 201.514 M121.210 202.268 C 121.692 202.871,124.031 204.781,124.031 204.571 C 124.031 204.498,123.298 203.827,122.403 203.080 C 121.508 202.334,120.971 201.968,121.210 202.268 M132.326 203.638 C 133.050 203.703,134.236 203.703,134.961 203.638 C 135.686 203.573,135.093 203.519,133.643 203.519 C 132.194 203.519,131.601 203.573,132.326 203.638 M142.972 204.459 L 142.224 205.426 143.111 204.583 C 143.599 204.119,143.936 203.684,143.860 203.616 C 143.783 203.548,143.384 203.928,142.972 204.459 M159.295 203.635 C 159.846 203.703,160.823 203.704,161.466 203.637 C 162.109 203.570,161.659 203.514,160.465 203.513 C 159.271 203.511,158.745 203.566,159.295 203.635 M186.512 203.623 C 188.667 203.811,189.151 204.022,189.776 205.047 C 190.111 205.597,190.386 205.861,190.386 205.635 C 190.390 204.519,188.621 203.409,186.923 203.463 C 185.524 203.507,185.461 203.532,186.512 203.623 M203.488 203.637 C 204.128 203.704,205.174 203.704,205.814 203.637 C 206.453 203.570,205.930 203.515,204.651 203.515 C 203.372 203.515,202.849 203.570,203.488 203.637 M261.323 203.636 C 261.881 203.705,262.718 203.703,263.184 203.632 C 263.650 203.562,263.194 203.505,262.171 203.507 C 261.147 203.509,260.766 203.567,261.323 203.636 M285.116 203.565 C 285.905 203.832,288.420 203.942,288.026 203.692 C 287.790 203.543,286.969 203.429,286.202 203.440 C 285.434 203.451,284.946 203.507,285.116 203.565 M227.287 204.341 C 228.110 205.164,228.078 206.357,227.218 206.959 C 226.839 207.225,226.678 207.442,226.860 207.442 C 227.380 207.442,228.217 206.370,228.217 205.703 C 228.217 205.014,227.397 203.721,226.959 203.721 C 226.798 203.721,226.946 204.000,227.287 204.341 M280.282 204.289 C 280.449 204.602,280.830 205.055,281.128 205.297 C 281.463 205.569,281.388 205.352,280.931 204.729 C 280.117 203.616,279.811 203.409,280.282 204.289 M241.291 205.440 C 240.771 206.580,240.870 206.823,241.432 205.787 C 241.694 205.302,241.851 204.848,241.780 204.777 C 241.709 204.707,241.489 205.005,241.291 205.440 M213.048 205.921 C 213.034 206.193,213.337 206.681,213.721 207.006 C 214.413 207.592,214.414 207.592,213.916 206.977 C 213.640 206.636,213.337 206.147,213.243 205.891 C 213.098 205.497,213.069 205.501,213.048 205.921 M289.327 205.951 C 289.313 206.240,288.992 206.694,288.613 206.959 C 288.234 207.225,288.073 207.442,288.255 207.442 C 288.782 207.442,289.692 206.278,289.514 205.832 C 289.405 205.561,289.343 205.601,289.327 205.951 M282.050 206.257 C 282.277 206.625,284.027 207.499,284.305 207.383 C 284.433 207.330,283.942 206.997,283.213 206.642 C 282.485 206.288,281.961 206.114,282.050 206.257 M189.550 206.621 C 189.414 206.852,189.093 207.120,188.837 207.217 C 188.462 207.359,188.475 207.398,188.904 207.417 C 189.196 207.431,189.585 207.163,189.767 206.822 C 190.136 206.134,189.943 205.956,189.550 206.621 M136.434 207.132 C 135.811 207.331,135.781 207.382,136.279 207.389 C 136.620 207.394,137.178 207.278,137.519 207.132 C 138.310 206.792,137.494 206.792,136.434 207.132 M236.640 207.920 C 236.441 208.355,236.285 208.879,236.291 209.084 C 236.298 209.290,236.509 208.983,236.761 208.403 C 237.291 207.182,237.179 206.737,236.640 207.920 M234.636 213.439 C 234.548 213.668,234.600 214.051,234.753 214.292 C 234.954 214.610,235.031 214.497,235.034 213.876 C 235.039 212.950,234.887 212.783,234.636 213.439 " stroke="none" fill="#e5dcf4" fill-rule="evenodd"></path></g></svg>